{
  "accessors": [
    {
      "bufferView": 2,
      "componentType": 5126,
      "count": 33937,
      "max": [
        9.759064674377441,
        -17.857219696044922,
        6.172973155975342
      ],
      "min": [
        -7.251016139984131,
        -43.827030181884766,
        -6.879549980163574
      ],
      "type": "VEC3"
    },
    {
      "bufferView": 2,
      "byteOffset": 407244,
      "componentType": 5126,
      "count": 33937,
      "max": [
        0.9999618530273438,
        1.0,
        0.9999864101409912
      ],
      "min": [
        -0.9999315738677979,
        -0.9999977350234985,
        -0.9999837875366211
      ],
      "type": "VEC3"
    },
    {
      "bufferView": 3,
      "componentType": 5126,
      "count": 33937,
      "max": [
        0.9999775886535645,
        0.9999263882637024,
        0.9999405741691589,
        1.0
      ],
      "min": [
        -0.9998266696929932,
        -0.9999952912330627,
        -0.9999977350234985,
        -1.0
      ],
      "type": "VEC4"
    },
    {
      "bufferView": 1,
      "componentType": 5126,
      "count": 33937,
      "max": [
        0.9980469942092896,
        0.9934470057487488
      ],
      "min": [
        0.0019529999699443579,
        0.0019529999699443579
      ],
      "type": "VEC2"
    },
    {
      "bufferView": 0,
      "componentType": 5125,
      "count": 150054,
      "type": "SCALAR"
    }
  ],
  "asset": {
    "extras": {
      "author": "Rigsters (https://sketchfab.com/rigsters)",
      "license": "CC-BY-4.0 (http://creativecommons.org/licenses/by/4.0/)",
      "source": "https://sketchfab.com/3d-models/apollo-belvedere-9b67614ab3f9422d9f6c88fb4fdd60cc",
      "title": "Apollo Belvedere"
    },
    "generator": "Sketchfab-12.68.0",
    "version": "2.0"
  },
  "bufferViews": [
    {
      "buffer": 0,
      "byteLength": 600216,
      "name": "floatBufferViews",
      "target": 34963
    },
    {
      "buffer": 0,
      "byteLength": 271496,
      "byteOffset": 600216,
      "byteStride": 8,
      "name": "floatBufferViews",
      "target": 34962
    },
    {
      "buffer": 0,
      "byteLength": 814488,
      "byteOffset": 871712,
      "byteStride": 12,
      "name": "floatBufferViews",
      "target": 34962
    },
    {
      "buffer": 0,
      "byteLength": 542992,
      "byteOffset": 1686200,
      "byteStride": 16,
      "name": "floatBufferViews",
      "target": 34962
    }
  ],
  "buffers": [
    {
      "byteLength": 2229192,
      "uri": "scene.bin"
    }
  ],
  "images": [
    {
      "uri": "textures/None_baseColor.jpeg"
    },
    {
      "uri": "textures/None_metallicRoughness.png"
    },
    {
      "uri": "textures/None_normal.png"
    }
  ],
  "materials": [
    {
      "doubleSided": true,
      "name": "None",
      "normalTexture": {
        "index": 2
      },
      "occlusionTexture": {
        "index": 1
      },
      "pbrMetallicRoughness": {
        "baseColorTexture": {
          "index": 0
        },
        "metallicRoughnessTexture": {
          "index": 1
        }
      }
    }
  ],
  "meshes": [
    {
      "name": "Object_0",
      "primitives": [
        {
          "attributes": {
            "NORMAL": 1,
            "POSITION": 0,
            "TANGENT": 2,
            "TEXCOORD_0": 3
          },
          "indices": 4,
          "material": 0,
          "mode": 4
        }
      ]
    }
  ],
  "nodes": [
    {
      "children": [
        1
      ],
      "matrix": [
        0.0804758220911026,
        0.0,
        0.0,
        0.0,
        0.0,
        -0.0804758220911026,
        -1.7869222122235984e-17,
        0.0,
        0.0,
        1.7869222122235984e-17,
        -0.0804758220911026,
        0.0,
        0.0,
        -31.195373535156257,
        30.488813400268548,
        1.0
      ],
      "name": "Sketchfab_model"
    },
    {
      "children": [
        2
      ],
      "name": "apollo-50k-sm.OBJ.cleaner.materialmerger.gles"
    },
    {
      "mesh": 0,
      "name": "Object_2"
    }
  ],
  "samplers": [
    {
      "magFilter": 9729,
      "minFilter": 9987,
      "wrapS": 10497,
      "wrapT": 10497
    }
  ],
  "scene": 0,
  "scenes": [
    {
      "name": "Sketchfab_Scene",
      "nodes": [
        0
      ]
    }
  ],
  "textures": [
    {
      "sampler": 0,
      "source": 0
    },
    {
      "sampler": 0,
      "source": 1
    },
    {
      "sampler": 0,
      "source": 2
    }
  ]
}
