{
  "accessors": [
    {
      "bufferView": 2,
      "componentType": 5126,
      "count": 65532,
      "max": [
        2.695794105529785,
        1.5357966423034668,
        1.745732069015503
      ],
      "min": [
        0.006036043167114258,
        0.0,
        0.0
      ],
      "type": "VEC3"
    },
    {
      "bufferView": 2,
      "byteOffset": 786384,
      "componentType": 5126,
      "count": 65532,
      "max": [
        0.9998664855957031,
        0.999969482421875,
        0.9996498823165894
      ],
      "min": [
        -0.9997519850730896,
        -0.9999940991401672,
        -0.9999646544456482
      ],
      "type": "VEC3"
    },
    {
      "bufferView": 1,
      "componentType": 5126,
      "count": 65532,
      "max": [
        0.9938510060310364,
        0.9978610277175903
      ],
      "min": [
        0.002756000030785799,
        0.0037479999009519815
      ],
      "type": "VEC2"
    },
    {
      "bufferView": 0,
      "componentType": 5125,
      "count": 353838,
      "type": "SCALAR"
    },
    {
      "bufferView": 2,
      "byteOffset": 1572768,
      "componentType": 5126,
      "count": 65532,
      "max": [
        2.6949009895324707,
        1.5351128578186035,
        1.7519350051879883
      ],
      "min": [
        0.0,
        0.0,
        0.3558030128479004
      ],
      "type": "VEC3"
    },
    {
      "bufferView": 2,
      "byteOffset": 2359152,
      "componentType": 5126,
      "count": 65532,
      "max": [
        0.9998873472213745,
        0.9999781250953674,
        0.9999881386756897
      ],
      "min": [
        -0.9998987913131714,
        -0.999946117401123,
        -0.9999625086784363
      ],
      "type": "VEC3"
    },
    {
      "bufferView": 1,
      "byteOffset": 524256,
      "componentType": 5126,
      "count": 65532,
      "max": [
        0.9958750009536743,
        0.9994120001792908
      ],
      "min": [
        0.003826000029221177,
        0.0038189999759197235
      ],
      "type": "VEC2"
    },
    {
      "bufferView": 0,
      "byteOffset": 1415352,
      "componentType": 5125,
      "count": 327873,
      "type": "SCALAR"
    },
    {
      "bufferView": 2,
      "byteOffset": 3145536,
      "componentType": 5126,
      "count": 11475,
      "max": [
        2.665782928466797,
        1.5234017372131348,
        1.313825011253357
      ],
      "min": [
        0.006036043167114258,
        0.04278373718261719,
        0.692641019821167
      ],
      "type": "VEC3"
    },
    {
      "bufferView": 2,
      "byteOffset": 3283236,
      "componentType": 5126,
      "count": 11475,
      "max": [
        0.9996120929718018,
        0.9999416470527649,
        0.9999333620071411
      ],
      "min": [
        -0.997795581817627,
        -0.9999440908432007,
        -0.9940536618232727
      ],
      "type": "VEC3"
    },
    {
      "bufferView": 1,
      "byteOffset": 1048512,
      "componentType": 5126,
      "count": 11475,
      "max": [
        0.9918569922447205,
        0.9986140131950378
      ],
      "min": [
        0.005059999879449606,
        0.004838000051677227
      ],
      "type": "VEC2"
    },
    {
      "bufferView": 0,
      "byteOffset": 2726844,
      "componentType": 5125,
      "count": 39168,
      "type": "SCALAR"
    }
  ],
  "asset": {
    "extras": {
      "author": "ryanfb (https://sketchfab.com/ryanfb)",
      "license": "CC-BY-4.0 (http://creativecommons.org/licenses/by/4.0/)",
      "source": "https://sketchfab.com/3d-models/louvre-demosthenes-photoscan-cf5d9dd9bf4a457c95dc76e17848727b",
      "title": "Louvre Demosthenes (PhotoScan)"
    },
    "generator": "Sketchfab-12.68.0",
    "version": "2.0"
  },
  "bufferViews": [
    {
      "buffer": 0,
      "byteLength": 2883516,
      "name": "floatBufferViews",
      "target": 34963
    },
    {
      "buffer": 0,
      "byteLength": 1140312,
      "byteOffset": 2883516,
      "byteStride": 8,
      "name": "floatBufferViews",
      "target": 34962
    },
    {
      "buffer": 0,
      "byteLength": 3420936,
      "byteOffset": 4023828,
      "byteStride": 12,
      "name": "floatBufferViews",
      "target": 34962
    }
  ],
  "buffers": [
    {
      "byteLength": 7444764,
      "uri": "scene.bin"
    }
  ],
  "extensionsUsed": [
    "KHR_materials_unlit"
  ],
  "images": [
    {
      "uri": "textures/material_0_baseColor.jpeg"
    }
  ],
  "materials": [
    {
      "doubleSided": true,
      "extensions": {
        "KHR_materials_unlit": {}
      },
      "name": "material_0",
      "pbrMetallicRoughness": {
        "baseColorTexture": {
          "index": 0
        },
        "metallicFactor": 0.0
      }
    }
  ],
  "meshes": [
    {
      "name": "Object_0",
      "primitives": [
        {
          "attributes": {
            "NORMAL": 1,
            "POSITION": 0,
            "TEXCOORD_0": 2
          },
          "indices": 3,
          "material": 0,
          "mode": 4
        }
      ]
    },
    {
      "name": "Object_1",
      "primitives": [
        {
          "attributes": {
            "NORMAL": 5,
            "POSITION": 4,
            "TEXCOORD_0": 6
          },
          "indices": 7,
          "material": 0,
          "mode": 4
        }
      ]
    },
    {
      "name": "Object_2",
      "primitives": [
        {
          "attributes": {
            "NORMAL": 9,
            "POSITION": 8,
            "TEXCOORD_0": 10
          },
          "indices": 11,
          "material": 0,
          "mode": 4
        }
      ]
    }
  ],
  "nodes": [
    {
      "children": [
        1
      ],
      "matrix": [
        0.01836389865666188,
        1.0625375477059293,
        2.3593072999837454e-16,
        0.0,
        1.7086906972207535e-16,
        2.330128218083102e-16,
        -1.0626962184906006,
        0.0,
        -1.0625375477059293,
        0.01836389865666188,
        -1.6681697840653466e-16,
        0.0,
        0.114966981112957,
        -0.05703068897128105,
        -1.2663356801230441e-17,
        1.0
      ],
      "name": "Sketchfab_model"
    },
    {
      "children": [
        2
      ],
      "matrix": [
        1.0,
        0.0,
        0.0,
        0.0,
        0.0,
        1.0,
        0.0,
        0.0,
        0.0,
        0.0,
        1.0,
        0.0,
        -1.261396050453186,
        -5.770074844360352,
        -0.8459960222244263,
        1.0
      ],
      "name": "louvre-demosthenes-photoscan.obj.cleaner.gles"
    },
    {
      "children": [
        3,
        4,
        5
      ],
      "name": "Object_2"
    },
    {
      "mesh": 0,
      "name": "Object_3"
    },
    {
      "mesh": 1,
      "name": "Object_4"
    },
    {
      "mesh": 2,
      "name": "Object_5"
    }
  ],
  "samplers": [
    {
      "magFilter": 9729,
      "minFilter": 9987,
      "wrapS": 10497,
      "wrapT": 10497
    }
  ],
  "scene": 0,
  "scenes": [
    {
      "name": "Sketchfab_Scene",
      "nodes": [
        0
      ]
    }
  ],
  "textures": [
    {
      "sampler": 0,
      "source": 0
    }
  ]
}
