{
  "accessors": [
    {
      "bufferView": 2,
      "componentType": 5126,
      "count": 65532,
      "max": [
        15.969067573547363,
        -4.76837158203125e-07,
        14.060163497924805
      ],
      "min": [
        -5.3821330070495605,
        -9.093888282775879,
        -18.199951171875
      ],
      "type": "VEC3"
    },
    {
      "bufferView": 2,
      "byteOffset": 786384,
      "componentType": 5126,
      "count": 65532,
      "max": [
        0.9999816417694092,
        0.9995527863502502,
        0.9999092817306519
      ],
      "min": [
        -0.9999943971633911,
        -0.9999984502792358,
        -0.9999977350234985
      ],
      "type": "VEC3"
    },
    {
      "bufferView": 1,
      "componentType": 5126,
      "count": 65532,
      "max": [
        0.9998589754104614,
        0.6314089894294739
      ],
      "min": [
        0.5000609755516052,
        0.500095009803772
      ],
      "type": "VEC2"
    },
    {
      "bufferView": 0,
      "componentType": 5125,
      "count": 260514,
      "type": "SCALAR"
    },
    {
      "bufferView": 2,
      "byteOffset": 1572768,
      "componentType": 5126,
      "count": 65532,
      "max": [
        15.948720932006836,
        -4.76837158203125e-07,
        14.064804077148438
      ],
      "min": [
        -9.02246379852295,
        -8.459931373596191,
        -17.121498107910156
      ],
      "type": "VEC3"
    },
    {
      "bufferView": 2,
      "byteOffset": 2359152,
      "componentType": 5126,
      "count": 65532,
      "max": [
        0.9999345541000366,
        0.999918520450592,
        0.999978244304657
      ],
      "min": [
        -0.9999380707740784,
        -0.9999984502792358,
        -0.9999964833259583
      ],
      "type": "VEC3"
    },
    {
      "bufferView": 1,
      "byteOffset": 524256,
      "componentType": 5126,
      "count": 65532,
      "max": [
        0.9998589754104614,
        0.6309199929237366
      ],
      "min": [
        0.5000609755516052,
        0.500095009803772
      ],
      "type": "VEC2"
    },
    {
      "bufferView": 0,
      "byteOffset": 1042056,
      "componentType": 5125,
      "count": 246627,
      "type": "SCALAR"
    },
    {
      "bufferView": 2,
      "byteOffset": 3145536,
      "componentType": 5126,
      "count": 65532,
      "max": [
        17.721864700317383,
        -4.76837158203125e-07,
        16.591602325439453
      ],
      "min": [
        -6.163322448730469,
        -9.078518867492676,
        -18.516109466552734
      ],
      "type": "VEC3"
    },
    {
      "bufferView": 2,
      "byteOffset": 3931920,
      "componentType": 5126,
      "count": 65532,
      "max": [
        0.9998427629470825,
        0.9989273548126221,
        0.9998278617858887
      ],
      "min": [
        -0.9998705983161926,
        -0.9999997615814209,
        -0.9999198913574219
      ],
      "type": "VEC3"
    },
    {
      "bufferView": 1,
      "byteOffset": 1048512,
      "componentType": 5126,
      "count": 65532,
      "max": [
        0.9944239854812622,
        0.9999390244483948
      ],
      "min": [
        6.0999998822808266e-05,
        0.5001630187034607
      ],
      "type": "VEC2"
    },
    {
      "bufferView": 0,
      "byteOffset": 2028564,
      "componentType": 5125,
      "count": 247932,
      "type": "SCALAR"
    },
    {
      "bufferView": 2,
      "byteOffset": 4718304,
      "componentType": 5126,
      "count": 65532,
      "max": [
        20.07107925415039,
        -4.76837158203125e-07,
        12.416279792785645
      ],
      "min": [
        -8.92007827758789,
        -8.13835334777832,
        -17.399940490722656
      ],
      "type": "VEC3"
    },
    {
      "bufferView": 2,
      "byteOffset": 5504688,
      "componentType": 5126,
      "count": 65532,
      "max": [
        0.9999330043792725,
        1.0,
        0.9997519254684448
      ],
      "min": [
        -0.9999850988388062,
        -0.9999999403953552,
        -0.9999961256980896
      ],
      "type": "VEC3"
    },
    {
      "bufferView": 1,
      "byteOffset": 1572768,
      "componentType": 5126,
      "count": 65532,
      "max": [
        0.49988099932670593,
        0.9999390244483948
      ],
      "min": [
        6.0999998822808266e-05,
        0.5001540184020996
      ],
      "type": "VEC2"
    },
    {
      "bufferView": 0,
      "byteOffset": 3020292,
      "componentType": 5125,
      "count": 265815,
      "type": "SCALAR"
    },
    {
      "bufferView": 2,
      "byteOffset": 6291072,
      "componentType": 5126,
      "count": 65532,
      "max": [
        15.992568016052246,
        -4.76837158203125e-07,
        13.18927001953125
      ],
      "min": [
        -7.177562713623047,
        -8.43020248413086,
        -17.297842025756836
      ],
      "type": "VEC3"
    },
    {
      "bufferView": 2,
      "byteOffset": 7077456,
      "componentType": 5126,
      "count": 65532,
      "max": [
        0.9998047947883606,
        0.9972871541976929,
        0.9997661113739014
      ],
      "min": [
        -0.9999589920043945,
        -1.0,
        -0.9999500513076782
      ],
      "type": "VEC3"
    },
    {
      "bufferView": 1,
      "byteOffset": 2097024,
      "componentType": 5126,
      "count": 65532,
      "max": [
        0.4997499883174896,
        0.9999390244483948
      ],
      "min": [
        6.0999998822808266e-05,
        0.5002099871635437
      ],
      "type": "VEC2"
    },
    {
      "bufferView": 0,
      "byteOffset": 4083552,
      "componentType": 5125,
      "count": 252540,
      "type": "SCALAR"
    },
    {
      "bufferView": 2,
      "byteOffset": 7863840,
      "componentType": 5126,
      "count": 65532,
      "max": [
        20.89253807067871,
        -4.76837158203125e-07,
        15.349082946777344
      ],
      "min": [
        -7.416536808013916,
        -8.11136531829834,
        -18.516109466552734
      ],
      "type": "VEC3"
    },
    {
      "bufferView": 2,
      "byteOffset": 8650224,
      "componentType": 5126,
      "count": 65532,
      "max": [
        0.999918520450592,
        1.0,
        0.999907374382019
      ],
      "min": [
        -0.9999637603759766,
        -0.9999997615814209,
        -0.9999523162841797
      ],
      "type": "VEC3"
    },
    {
      "bufferView": 1,
      "byteOffset": 2621280,
      "componentType": 5126,
      "count": 65532,
      "max": [
        0.4998910129070282,
        0.9999390244483948
      ],
      "min": [
        6.0999998822808266e-05,
        0.500190019607544
      ],
      "type": "VEC2"
    },
    {
      "bufferView": 0,
      "byteOffset": 5093712,
      "componentType": 5125,
      "count": 242973,
      "type": "SCALAR"
    },
    {
      "bufferView": 2,
      "byteOffset": 9436608,
      "componentType": 5126,
      "count": 65532,
      "max": [
        17.43135643005371,
        -0.0943751335144043,
        14.324430465698242
      ],
      "min": [
        -5.131870269775391,
        -7.62911319732666,
        -18.36560821533203
      ],
      "type": "VEC3"
    },
    {
      "bufferView": 2,
      "byteOffset": 10222992,
      "componentType": 5126,
      "count": 65532,
      "max": [
        0.9999993443489075,
        0.9998513460159302,
        0.9999855756759644
      ],
      "min": [
        -0.9999809861183167,
        -0.9999997615814209,
        -0.9999076724052429
      ],
      "type": "VEC3"
    },
    {
      "bufferView": 1,
      "byteOffset": 3145536,
      "componentType": 5126,
      "count": 65532,
      "max": [
        0.49972501397132874,
        0.9999390244483948
      ],
      "min": [
        6.0999998822808266e-05,
        0.5001540184020996
      ],
      "type": "VEC2"
    },
    {
      "bufferView": 0,
      "byteOffset": 6065604,
      "componentType": 5125,
      "count": 244965,
      "type": "SCALAR"
    },
    {
      "bufferView": 2,
      "byteOffset": 11009376,
      "componentType": 5126,
      "count": 65532,
      "max": [
        15.689718246459961,
        -4.76837158203125e-07,
        16.591602325439453
      ],
      "min": [
        -10.423971176147461,
        -8.11136531829834,
        -11.45844554901123
      ],
      "type": "VEC3"
    },
    {
      "bufferView": 2,
      "byteOffset": 11795760,
      "componentType": 5126,
      "count": 65532,
      "max": [
        0.99990314245224,
        1.0,
        0.9997971057891846
      ],
      "min": [
        -0.9999997615814209,
        -0.9999993443489075,
        -0.9999929666519165
      ],
      "type": "VEC3"
    },
    {
      "bufferView": 1,
      "byteOffset": 3669792,
      "componentType": 5126,
      "count": 65532,
      "max": [
        0.49990299344062805,
        0.9999390244483948
      ],
      "min": [
        6.0999998822808266e-05,
        0.5007269978523254
      ],
      "type": "VEC2"
    },
    {
      "bufferView": 0,
      "byteOffset": 7045464,
      "componentType": 5125,
      "count": 246390,
      "type": "SCALAR"
    },
    {
      "bufferView": 2,
      "byteOffset": 12582144,
      "componentType": 5126,
      "count": 65532,
      "max": [
        17.77388572692871,
        -4.76837158203125e-07,
        13.676828384399414
      ],
      "min": [
        -9.204506874084473,
        -9.600460052490234,
        -16.744823455810547
      ],
      "type": "VEC3"
    },
    {
      "bufferView": 2,
      "byteOffset": 13368528,
      "componentType": 5126,
      "count": 65532,
      "max": [
        0.9999586343765259,
        1.0,
        0.9999399781227112
      ],
      "min": [
        -0.9999973177909851,
        -0.9999995827674866,
        -0.9999886751174927
      ],
      "type": "VEC3"
    },
    {
      "bufferView": 1,
      "byteOffset": 4194048,
      "componentType": 5126,
      "count": 65532,
      "max": [
        0.49989598989486694,
        0.9999390244483948
      ],
      "min": [
        6.0999998822808266e-05,
        0.5001929998397827
      ],
      "type": "VEC2"
    },
    {
      "bufferView": 0,
      "byteOffset": 8031024,
      "componentType": 5125,
      "count": 213312,
      "type": "SCALAR"
    },
    {
      "bufferView": 2,
      "byteOffset": 14154912,
      "componentType": 5126,
      "count": 65532,
      "max": [
        16.367788314819336,
        -4.76837158203125e-07,
        16.591602325439453
      ],
      "min": [
        -10.332131385803223,
        -9.325841903686523,
        -17.46869659423828
      ],
      "type": "VEC3"
    },
    {
      "bufferView": 2,
      "byteOffset": 14941296,
      "componentType": 5126,
      "count": 65532,
      "max": [
        0.999971866607666,
        1.0,
        0.9998615384101868
      ],
      "min": [
        -0.9999440312385559,
        -0.9999998807907104,
        -0.9999929666519165
      ],
      "type": "VEC3"
    },
    {
      "bufferView": 1,
      "byteOffset": 4718304,
      "componentType": 5126,
      "count": 65532,
      "max": [
        0.49989598989486694,
        0.9999390244483948
      ],
      "min": [
        6.0999998822808266e-05,
        0.5001069903373718
      ],
      "type": "VEC2"
    },
    {
      "bufferView": 0,
      "byteOffset": 8884272,
      "componentType": 5125,
      "count": 198438,
      "type": "SCALAR"
    },
    {
      "bufferView": 2,
      "byteOffset": 15727680,
      "componentType": 5126,
      "count": 65532,
      "max": [
        20.89253807067871,
        -4.76837158203125e-07,
        16.591602325439453
      ],
      "min": [
        -10.423971176147461,
        -9.330428123474121,
        -18.516109466552734
      ],
      "type": "VEC3"
    },
    {
      "bufferView": 2,
      "byteOffset": 16514064,
      "componentType": 5126,
      "count": 65532,
      "max": [
        0.9999073147773743,
        1.0,
        0.9999983310699463
      ],
      "min": [
        -0.9999262690544128,
        -1.0,
        -0.999974250793457
      ],
      "type": "VEC3"
    },
    {
      "bufferView": 1,
      "byteOffset": 5242560,
      "componentType": 5126,
      "count": 65532,
      "max": [
        0.4999009966850281,
        0.9999390244483948
      ],
      "min": [
        6.0999998822808266e-05,
        0.5001940131187439
      ],
      "type": "VEC2"
    },
    {
      "bufferView": 0,
      "byteOffset": 9678024,
      "componentType": 5125,
      "count": 198009,
      "type": "SCALAR"
    },
    {
      "bufferView": 2,
      "byteOffset": 17300448,
      "componentType": 5126,
      "count": 65532,
      "max": [
        20.89253807067871,
        1.049041748046875e-05,
        14.124658584594727
      ],
      "min": [
        -9.355545043945313,
        -8.233383178710938,
        -17.699825286865234
      ],
      "type": "VEC3"
    },
    {
      "bufferView": 2,
      "byteOffset": 18086832,
      "componentType": 5126,
      "count": 65532,
      "max": [
        0.9999358654022217,
        1.0,
        0.999999463558197
      ],
      "min": [
        -0.9999410510063171,
        -1.0,
        -0.9999929666519165
      ],
      "type": "VEC3"
    },
    {
      "bufferView": 1,
      "byteOffset": 5766816,
      "componentType": 5126,
      "count": 65532,
      "max": [
        0.499904990196228,
        0.9999390244483948
      ],
      "min": [
        6.0999998822808266e-05,
        0.5001069903373718
      ],
      "type": "VEC2"
    },
    {
      "bufferView": 0,
      "byteOffset": 10470060,
      "componentType": 5125,
      "count": 161526,
      "type": "SCALAR"
    },
    {
      "bufferView": 2,
      "byteOffset": 18873216,
      "componentType": 5126,
      "count": 65532,
      "max": [
        20.89253807067871,
        -4.76837158203125e-07,
        14.124658584594727
      ],
      "min": [
        -10.423971176147461,
        -9.146679878234863,
        -15.23813533782959
      ],
      "type": "VEC3"
    },
    {
      "bufferView": 2,
      "byteOffset": 19659600,
      "componentType": 5126,
      "count": 65532,
      "max": [
        0.9999576807022095,
        1.0,
        0.999872624874115
      ],
      "min": [
        -0.9999890923500061,
        -0.9999999403953552,
        -0.999914824962616
      ],
      "type": "VEC3"
    },
    {
      "bufferView": 1,
      "byteOffset": 6291072,
      "componentType": 5126,
      "count": 65532,
      "max": [
        0.4998829960823059,
        0.9999390244483948
      ],
      "min": [
        6.0999998822808266e-05,
        0.5001599788665771
      ],
      "type": "VEC2"
    },
    {
      "bufferView": 0,
      "byteOffset": 11116164,
      "componentType": 5125,
      "count": 162006,
      "type": "SCALAR"
    },
    {
      "bufferView": 2,
      "byteOffset": 20445984,
      "componentType": 5126,
      "count": 26836,
      "max": [
        17.776002883911133,
        -4.76837158203125e-07,
        16.591602325439453
      ],
      "min": [
        -10.423971176147461,
        -8.11136531829834,
        -17.48052406311035
      ],
      "type": "VEC3"
    },
    {
      "bufferView": 2,
      "byteOffset": 20768016,
      "componentType": 5126,
      "count": 26836,
      "max": [
        0.9998986721038818,
        0.996498703956604,
        0.9994083642959595
      ],
      "min": [
        -0.9998232126235962,
        -0.999998152256012,
        -0.9998461604118347
      ],
      "type": "VEC3"
    },
    {
      "bufferView": 1,
      "byteOffset": 6815328,
      "componentType": 5126,
      "count": 26836,
      "max": [
        0.4999080002307892,
        0.9999390244483948
      ],
      "min": [
        6.0999998822808266e-05,
        0.5002179741859436
      ],
      "type": "VEC2"
    },
    {
      "bufferView": 0,
      "byteOffset": 11764188,
      "componentType": 5125,
      "count": 58953,
      "type": "SCALAR"
    }
  ],
  "asset": {
    "extras": {
      "author": "theovasilis (https://sketchfab.com/theovasilis)",
      "license": "CC-BY-4.0 (http://creativecommons.org/licenses/by/4.0/)",
      "source": "https://sketchfab.com/3d-models/ancient-greek-theater-acropolis-50531350a6b84337b95c7c29952308e5",
      "title": "Ancient greek theater Acropolis"
    },
    "generator": "Sketchfab-12.68.0",
    "version": "2.0"
  },
  "bufferViews": [
    {
      "buffer": 0,
      "byteLength": 12000000,
      "name": "floatBufferViews",
      "target": 34963
    },
    {
      "buffer": 0,
      "byteLength": 7030016,
      "byteOffset": 12000000,
      "byteStride": 8,
      "name": "floatBufferViews",
      "target": 34962
    },
    {
      "buffer": 0,
      "byteLength": 21090048,
      "byteOffset": 19030016,
      "byteStride": 12,
      "name": "floatBufferViews",
      "target": 34962
    }
  ],
  "buffers": [
    {
      "byteLength": 40120064,
      "uri": "scene.bin"
    }
  ],
  "extensionsUsed": [
    "KHR_materials_unlit"
  ],
  "images": [
    {
      "uri": "textures/th_version2_Material_u1_v1_baseColor.jpeg"
    }
  ],
  "materials": [
    {
      "doubleSided": true,
      "extensions": {
        "KHR_materials_unlit": {}
      },
      "name": "th_version2_Material_u1_v1",
      "pbrMetallicRoughness": {
        "baseColorTexture": {
          "index": 0
        },
        "metallicFactor": 0.0
      }
    }
  ],
  "meshes": [
    {
      "name": "Object_0",
      "primitives": [
        {
          "attributes": {
            "NORMAL": 1,
            "POSITION": 0,
            "TEXCOORD_0": 2
          },
          "indices": 3,
          "material": 0,
          "mode": 4
        }
      ]
    },
    {
      "name": "Object_1",
      "primitives": [
        {
          "attributes": {
            "NORMAL": 5,
            "POSITION": 4,
            "TEXCOORD_0": 6
          },
          "indices": 7,
          "material": 0,
          "mode": 4
        }
      ]
    },
    {
      "name": "Object_2",
      "primitives": [
        {
          "attributes": {
            "NORMAL": 9,
            "POSITION": 8,
            "TEXCOORD_0": 10
          },
          "indices": 11,
          "material": 0,
          "mode": 4
        }
      ]
    },
    {
      "name": "Object_3",
      "primitives": [
        {
          "attributes": {
            "NORMAL": 13,
            "POSITION": 12,
            "TEXCOORD_0": 14
          },
          "indices": 15,
          "material": 0,
          "mode": 4
        }
      ]
    },
    {
      "name": "Object_4",
      "primitives": [
        {
          "attributes": {
            "NORMAL": 17,
            "POSITION": 16,
            "TEXCOORD_0": 18
          },
          "indices": 19,
          "material": 0,
          "mode": 4
        }
      ]
    },
    {
      "name": "Object_5",
      "primitives": [
        {
          "attributes": {
            "NORMAL": 21,
            "POSITION": 20,
            "TEXCOORD_0": 22
          },
          "indices": 23,
          "material": 0,
          "mode": 4
        }
      ]
    },
    {
      "name": "Object_6",
      "primitives": [
        {
          "attributes": {
            "NORMAL": 25,
            "POSITION": 24,
            "TEXCOORD_0": 26
          },
          "indices": 27,
          "material": 0,
          "mode": 4
        }
      ]
    },
    {
      "name": "Object_7",
      "primitives": [
        {
          "attributes": {
            "NORMAL": 29,
            "POSITION": 28,
            "TEXCOORD_0": 30
          },
          "indices": 31,
          "material": 0,
          "mode": 4
        }
      ]
    },
    {
      "name": "Object_8",
      "primitives": [
        {
          "attributes": {
            "NORMAL": 33,
            "POSITION": 32,
            "TEXCOORD_0": 34
          },
          "indices": 35,
          "material": 0,
          "mode": 4
        }
      ]
    },
    {
      "name": "Object_9",
      "primitives": [
        {
          "attributes": {
            "NORMAL": 37,
            "POSITION": 36,
            "TEXCOORD_0": 38
          },
          "indices": 39,
          "material": 0,
          "mode": 4
        }
      ]
    },
    {
      "name": "Object_10",
      "primitives": [
        {
          "attributes": {
            "NORMAL": 41,
            "POSITION": 40,
            "TEXCOORD_0": 42
          },
          "indices": 43,
          "material": 0,
          "mode": 4
        }
      ]
    },
    {
      "name": "Object_11",
      "primitives": [
        {
          "attributes": {
            "NORMAL": 45,
            "POSITION": 44,
            "TEXCOORD_0": 46
          },
          "indices": 47,
          "material": 0,
          "mode": 4
        }
      ]
    },
    {
      "name": "Object_12",
      "primitives": [
        {
          "attributes": {
            "NORMAL": 49,
            "POSITION": 48,
            "TEXCOORD_0": 50
          },
          "indices": 51,
          "material": 0,
          "mode": 4
        }
      ]
    },
    {
      "name": "Object_13",
      "primitives": [
        {
          "attributes": {
            "NORMAL": 53,
            "POSITION": 52,
            "TEXCOORD_0": 54
          },
          "indices": 55,
          "material": 0,
          "mode": 4
        }
      ]
    }
  ],
  "nodes": [
    {
      "children": [
        1
      ],
      "matrix": [
        0.9355739951133728,
        -7.841078622195134e-17,
        0.3531307876110077,
        0.0,
        -0.0009107235819101334,
        -0.9999966621398926,
        0.002412843517958896,
        0.0,
        0.3531295955181122,
        -0.0025789982173589775,
        -0.9355708360671997,
        0.0,
        0.672644853591919,
        -5.7649221420288095,
        2.0631852149963366,
        1.0
      ],
      "name": "Sketchfab_model"
    },
    {
      "children": [
        2,
        3,
        4,
        5,
        6,
        7,
        8,
        9,
        10,
        11,
        12,
        13,
        14,
        15
      ],
      "name": "th_version2.obj.cleaner.materialmerger.gles"
    },
    {
      "mesh": 0,
      "name": "Object_2"
    },
    {
      "mesh": 1,
      "name": "Object_3"
    },
    {
      "mesh": 2,
      "name": "Object_4"
    },
    {
      "mesh": 3,
      "name": "Object_5"
    },
    {
      "mesh": 4,
      "name": "Object_6"
    },
    {
      "mesh": 5,
      "name": "Object_7"
    },
    {
      "mesh": 6,
      "name": "Object_8"
    },
    {
      "mesh": 7,
      "name": "Object_9"
    },
    {
      "mesh": 8,
      "name": "Object_10"
    },
    {
      "mesh": 9,
      "name": "Object_11"
    },
    {
      "mesh": 10,
      "name": "Object_12"
    },
    {
      "mesh": 11,
      "name": "Object_13"
    },
    {
      "mesh": 12,
      "name": "Object_14"
    },
    {
      "mesh": 13,
      "name": "Object_15"
    }
  ],
  "samplers": [
    {
      "magFilter": 9729,
      "minFilter": 9987,
      "wrapS": 10497,
      "wrapT": 10497
    }
  ],
  "scene": 0,
  "scenes": [
    {
      "name": "Sketchfab_Scene",
      "nodes": [
        0
      ]
    }
  ],
  "textures": [
    {
      "sampler": 0,
      "source": 0
    }
  ]
}
