{
  "accessors": [
    {
      "bufferView": 2,
      "componentType": 5126,
      "count": 2,
      "max": [
        4.4127631187438965,
        8.087237358093262,
        10.0
      ],
      "min": [
        -4.41276216506958,
        8.087236404418945,
        10.0
      ],
      "type": "VEC3"
    },
    {
      "bufferView": 1,
      "componentType": 5126,
      "count": 2,
      "max": [
        0.0,
        0.0
      ],
      "min": [
        0.0,
        0.0
      ],
      "type": "VEC2"
    },
    {
      "bufferView": 0,
      "componentType": 5125,
      "count": 2,
      "type": "SCALAR"
    },
    {
      "bufferView": 2,
      "byteOffset": 24,
      "componentType": 5126,
      "count": 2612,
      "max": [
        14.495963096618652,
        9.220343589782715,
        0.5438169836997986
      ],
      "min": [
        -10.476621627807617,
        -5.466842174530029,
        -0.009464999660849571
      ],
      "type": "VEC3"
    },
    {
      "bufferView": 2,
      "byteOffset": 31368,
      "componentType": 5126,
      "count": 2612,
      "max": [
        1.0,
        1.0,
        1.0
      ],
      "min": [
        -1.0,
        -1.0,
        -1.0
      ],
      "type": "VEC3"
    },
    {
      "bufferView": 1,
      "byteOffset": 16,
      "componentType": 5126,
      "count": 2612,
      "max": [
        1.0,
        0.7476829886436462
      ],
      "min": [
        0.12730500102043152,
        0.0
      ],
      "type": "VEC2"
    },
    {
      "bufferView": 0,
      "byteOffset": 8,
      "componentType": 5125,
      "count": 3648,
      "type": "SCALAR"
    },
    {
      "bufferView": 2,
      "byteOffset": 62712,
      "componentType": 5126,
      "count": 2632,
      "max": [
        16.691452026367188,
        16.692527770996094,
        15.760000228881836
      ],
      "min": [
        -11.746870040893555,
        -7.072597026824951,
        5.022770881652832
      ],
      "type": "VEC3"
    },
    {
      "bufferView": 2,
      "byteOffset": 94296,
      "componentType": 5126,
      "count": 2632,
      "max": [
        1.0,
        1.0,
        1.0
      ],
      "min": [
        -1.0,
        -1.0,
        -1.0
      ],
      "type": "VEC3"
    },
    {
      "bufferView": 1,
      "byteOffset": 20912,
      "componentType": 5126,
      "count": 2632,
      "max": [
        1.0949070453643799,
        1.9546849727630615
      ],
      "min": [
        -1.9895000457763672,
        -1.8286499977111816
      ],
      "type": "VEC2"
    },
    {
      "bufferView": 0,
      "byteOffset": 14600,
      "componentType": 5125,
      "count": 3480,
      "type": "SCALAR"
    },
    {
      "bufferView": 2,
      "byteOffset": 125880,
      "componentType": 5126,
      "count": 12822,
      "max": [
        -7.6963958740234375,
        0.797120988368988,
        4.8629231452941895
      ],
      "min": [
        -7.867354869842529,
        -0.7088930010795593,
        4.621201038360596
      ],
      "type": "VEC3"
    },
    {
      "bufferView": 2,
      "byteOffset": 279744,
      "componentType": 5126,
      "count": 12822,
      "max": [
        0.944707453250885,
        0.9963316917419434,
        0.8722835779190063
      ],
      "min": [
        -0.9445016980171204,
        -0.9963653087615967,
        -0.8775237202644348
      ],
      "type": "VEC3"
    },
    {
      "bufferView": 1,
      "byteOffset": 41968,
      "componentType": 5126,
      "count": 12822,
      "max": [
        0.9367669820785522,
        0.9999979734420776
      ],
      "min": [
        0.0,
        0.0
      ],
      "type": "VEC2"
    },
    {
      "bufferView": 0,
      "byteOffset": 28520,
      "componentType": 5125,
      "count": 19692,
      "type": "SCALAR"
    },
    {
      "bufferView": 2,
      "byteOffset": 433608,
      "componentType": 5126,
      "count": 8557,
      "max": [
        -7.6963958740234375,
        -4.439557075500488,
        4.866790771484375
      ],
      "min": [
        -7.867354869842529,
        -5.945570945739746,
        4.6250691413879395
      ],
      "type": "VEC3"
    },
    {
      "bufferView": 2,
      "byteOffset": 536292,
      "componentType": 5126,
      "count": 8557,
      "max": [
        0.944707453250885,
        0.9963316917419434,
        0.8722835779190063
      ],
      "min": [
        -0.9445314407348633,
        -0.9963653087615967,
        -0.8775275349617004
      ],
      "type": "VEC3"
    },
    {
      "bufferView": 1,
      "byteOffset": 144544,
      "componentType": 5126,
      "count": 8557,
      "max": [
        0.9367669820785522,
        0.9999979734420776
      ],
      "min": [
        0.0,
        0.0
      ],
      "type": "VEC2"
    },
    {
      "bufferView": 0,
      "byteOffset": 107288,
      "componentType": 5125,
      "count": 13128,
      "type": "SCALAR"
    },
    {
      "bufferView": 2,
      "byteOffset": 638976,
      "componentType": 5126,
      "count": 12828,
      "max": [
        -7.6963958740234375,
        5.640789031982422,
        4.8629231452941895
      ],
      "min": [
        -7.867354869842529,
        4.134775161743164,
        4.621201038360596
      ],
      "type": "VEC3"
    },
    {
      "bufferView": 2,
      "byteOffset": 792912,
      "componentType": 5126,
      "count": 12828,
      "max": [
        0.944707453250885,
        0.9963316917419434,
        0.8722835779190063
      ],
      "min": [
        -0.9445016980171204,
        -0.9963653087615967,
        -0.8775237202644348
      ],
      "type": "VEC3"
    },
    {
      "bufferView": 1,
      "byteOffset": 213000,
      "componentType": 5126,
      "count": 12828,
      "max": [
        0.9367669820785522,
        0.9999979734420776
      ],
      "min": [
        0.0,
        0.0
      ],
      "type": "VEC2"
    },
    {
      "bufferView": 0,
      "byteOffset": 159800,
      "componentType": 5125,
      "count": 19692,
      "type": "SCALAR"
    },
    {
      "bufferView": 2,
      "byteOffset": 946848,
      "componentType": 5126,
      "count": 6288,
      "max": [
        7.090804100036621,
        7.115931987762451,
        15.75
      ],
      "min": [
        -11.787575721740723,
        -7.107035160064697,
        4.829999923706055
      ],
      "type": "VEC3"
    },
    {
      "bufferView": 2,
      "byteOffset": 1022304,
      "componentType": 5126,
      "count": 6288,
      "max": [
        1.0,
        1.0,
        1.0
      ],
      "min": [
        -1.0,
        -1.0,
        -1.0
      ],
      "type": "VEC3"
    },
    {
      "bufferView": 1,
      "byteOffset": 315624,
      "componentType": 5126,
      "count": 6288,
      "max": [
        3.0,
        2.3925259113311768
      ],
      "min": [
        -2.0,
        -1.5950169563293457
      ],
      "type": "VEC2"
    },
    {
      "bufferView": 0,
      "byteOffset": 238568,
      "componentType": 5125,
      "count": 12048,
      "type": "SCALAR"
    },
    {
      "bufferView": 2,
      "byteOffset": 1097760,
      "componentType": 5126,
      "count": 1872,
      "max": [
        -7.760723114013672,
        5.6358819007873535,
        4.690506935119629
      ],
      "min": [
        -7.860565185546875,
        -5.8746771812438965,
        4.628564834594727
      ],
      "type": "VEC3"
    },
    {
      "bufferView": 2,
      "byteOffset": 1120224,
      "componentType": 5126,
      "count": 1872,
      "max": [
        -0.32710394263267517,
        0.3639043867588043,
        -0.8719040751457214
      ],
      "min": [
        -0.4841121435165405,
        -0.23410998284816742,
        -0.8724389672279358
      ],
      "type": "VEC3"
    },
    {
      "bufferView": 1,
      "byteOffset": 365928,
      "componentType": 5126,
      "count": 1872,
      "max": [
        0.9873679876327515,
        0.9833850264549255
      ],
      "min": [
        0.25832098722457886,
        0.8513249754905701
      ],
      "type": "VEC2"
    },
    {
      "bufferView": 0,
      "byteOffset": 286760,
      "componentType": 5125,
      "count": 3072,
      "type": "SCALAR"
    },
    {
      "bufferView": 2,
      "byteOffset": 1142688,
      "componentType": 5126,
      "count": 24,
      "max": [
        17.500001907348633,
        17.5,
        0.0
      ],
      "min": [
        -12.5,
        -7.5,
        0.0
      ],
      "type": "VEC3"
    },
    {
      "bufferView": 2,
      "byteOffset": 1142976,
      "componentType": 5126,
      "count": 24,
      "max": [
        -0.0,
        0.0,
        1.0
      ],
      "min": [
        -0.0,
        0.0,
        -1.0
      ],
      "type": "VEC3"
    },
    {
      "bufferView": 1,
      "byteOffset": 380904,
      "componentType": 5126,
      "count": 24,
      "max": [
        15.5,
        3.8333399295806885
      ],
      "min": [
        -9.5,
        -14.5
      ],
      "type": "VEC2"
    },
    {
      "bufferView": 0,
      "byteOffset": 299048,
      "componentType": 5125,
      "count": 36,
      "type": "SCALAR"
    },
    {
      "bufferView": 2,
      "byteOffset": 1143264,
      "componentType": 5126,
      "count": 96,
      "max": [
        17.5,
        17.5,
        10.0
      ],
      "min": [
        -3.4214279651641846,
        -4.260715007781982,
        0.0
      ],
      "type": "VEC3"
    },
    {
      "bufferView": 2,
      "byteOffset": 1144416,
      "componentType": 5126,
      "count": 96,
      "max": [
        1.0,
        1.0,
        1.0
      ],
      "min": [
        -1.0,
        -1.0,
        -1.0
      ],
      "type": "VEC3"
    },
    {
      "bufferView": 1,
      "byteOffset": 381096,
      "componentType": 5126,
      "count": 96,
      "max": [
        2.1666600704193115,
        1.6404789686203003
      ],
      "min": [
        -1.1666699647903442,
        -0.9202359914779663
      ],
      "type": "VEC2"
    },
    {
      "bufferView": 0,
      "byteOffset": 299192,
      "componentType": 5125,
      "count": 144,
      "type": "SCALAR"
    },
    {
      "bufferView": 2,
      "byteOffset": 1145568,
      "componentType": 5126,
      "count": 16,
      "max": [
        17.309999465942383,
        17.348033905029297,
        10.0
      ],
      "min": [
        -5.013883113861084,
        -4.4686150550842285,
        0.0
      ],
      "type": "VEC3"
    },
    {
      "bufferView": 1,
      "byteOffset": 381864,
      "componentType": 5126,
      "count": 16,
      "max": [
        0.0,
        0.0
      ],
      "min": [
        0.0,
        0.0
      ],
      "type": "VEC2"
    },
    {
      "bufferView": 0,
      "byteOffset": 299768,
      "componentType": 5125,
      "count": 16,
      "type": "SCALAR"
    },
    {
      "bufferView": 2,
      "byteOffset": 1145760,
      "componentType": 5126,
      "count": 5071,
      "max": [
        17.500001907348633,
        17.5,
        15.0
      ],
      "min": [
        -12.5,
        -7.5,
        0.0
      ],
      "type": "VEC3"
    },
    {
      "bufferView": 2,
      "byteOffset": 1206612,
      "componentType": 5126,
      "count": 5071,
      "max": [
        1.0,
        1.0,
        1.0
      ],
      "min": [
        -1.0,
        -1.0,
        -1.0
      ],
      "type": "VEC3"
    },
    {
      "bufferView": 1,
      "byteOffset": 381992,
      "componentType": 5126,
      "count": 5071,
      "max": [
        9.71777057647705,
        10.499715805053711
      ],
      "min": [
        -8.79234790802002,
        -9.5
      ],
      "type": "VEC2"
    },
    {
      "bufferView": 0,
      "byteOffset": 299832,
      "componentType": 5125,
      "count": 7164,
      "type": "SCALAR"
    },
    {
      "bufferView": 2,
      "byteOffset": 1267464,
      "componentType": 5126,
      "count": 7843,
      "max": [
        17.500001907348633,
        17.5,
        15.0
      ],
      "min": [
        -12.5,
        -7.5,
        0.0
      ],
      "type": "VEC3"
    },
    {
      "bufferView": 2,
      "byteOffset": 1361580,
      "componentType": 5126,
      "count": 7843,
      "max": [
        1.0,
        1.0,
        1.0
      ],
      "min": [
        -1.0,
        -1.0,
        -1.0
      ],
      "type": "VEC3"
    },
    {
      "bufferView": 1,
      "byteOffset": 422560,
      "componentType": 5126,
      "count": 7843,
      "max": [
        10.5,
        15.5
      ],
      "min": [
        -14.5,
        -14.5
      ],
      "type": "VEC2"
    },
    {
      "bufferView": 0,
      "byteOffset": 328488,
      "componentType": 5125,
      "count": 11928,
      "type": "SCALAR"
    },
    {
      "bufferView": 2,
      "byteOffset": 1455696,
      "componentType": 5126,
      "count": 2116,
      "max": [
        14.51209831237793,
        13.381688117980957,
        3.0
      ],
      "min": [
        -10.492755889892578,
        -5.482976913452148,
        -0.009464999660849571
      ],
      "type": "VEC3"
    },
    {
      "bufferView": 2,
      "byteOffset": 1481088,
      "componentType": 5126,
      "count": 2116,
      "max": [
        1.0,
        1.0,
        1.0
      ],
      "min": [
        -1.0,
        -1.0,
        -1.0
      ],
      "type": "VEC3"
    },
    {
      "bufferView": 1,
      "byteOffset": 485304,
      "componentType": 5126,
      "count": 2116,
      "max": [
        0.9684309959411621,
        1.0
      ],
      "min": [
        0.0,
        0.0
      ],
      "type": "VEC2"
    },
    {
      "bufferView": 0,
      "byteOffset": 376200,
      "componentType": 5125,
      "count": 3468,
      "type": "SCALAR"
    }
  ],
  "asset": {
    "extras": {
      "author": "gugusheep (https://sketchfab.com/gugusheep)",
      "license": "SKETCHFAB Standard (https://sketchfab.com/licenses)",
      "source": "https://sketchfab.com/3d-models/vr-gallery-minimal-showroom-for-pruducts-vol-4-12acfd6e6f5147908ee08f7cf6f248ad",
      "title": "VR Gallery Minimal Showroom for pruducts vol 4"
    },
    "generator": "Sketchfab-14.87.0",
    "version": "2.0"
  },
  "bufferViews": [
    {
      "buffer": 0,
      "byteLength": 390072,
      "name": "floatBufferViews",
      "target": 34963
    },
    {
      "buffer": 0,
      "byteLength": 502232,
      "byteOffset": 390072,
      "byteStride": 8,
      "name": "floatBufferViews",
      "target": 34962
    },
    {
      "buffer": 0,
      "byteLength": 1506480,
      "byteOffset": 892304,
      "byteStride": 12,
      "name": "floatBufferViews",
      "target": 34962
    }
  ],
  "buffers": [
    {
      "byteLength": 2398784,
      "uri": "scene.bin"
    }
  ],
  "extensionsUsed": [
    "KHR_materials_transmission"
  ],
  "images": [
    {
      "uri": "textures/Carbon_Black_metallicRoughness.png"
    },
    {
      "uri": "textures/Floor_baseColor.jpeg"
    },
    {
      "uri": "textures/Plaster_metallicRoughness.png"
    }
  ],
  "materials": [
    {
      "doubleSided": true,
      "name": "Carbon_Black",
      "pbrMetallicRoughness": {
        "baseColorFactor": [
          0.07815172394660573,
          0.07815172394660573,
          0.07815172394660573,
          1.0
        ],
        "metallicFactor": 0.0,
        "metallicRoughnessTexture": {
          "index": 0
        }
      }
    },
    {
      "doubleSided": true,
      "name": "DARK_fabric.001",
      "pbrMetallicRoughness": {
        "baseColorFactor": [
          0.016789177993879932,
          0.016789177993879932,
          0.016789177993879932,
          1.0
        ],
        "metallicFactor": 0.0,
        "roughnessFactor": 0.6
      }
    },
    {
      "doubleSided": true,
      "name": "EMISSION",
      "pbrMetallicRoughness": {
        "metallicFactor": 0.0,
        "roughnessFactor": 0.6
      }
    },
    {
      "doubleSided": true,
      "name": "Floor",
      "pbrMetallicRoughness": {
        "baseColorTexture": {
          "index": 1
        },
        "metallicFactor": 0.0,
        "roughnessFactor": 0.6
      }
    },
    {
      "alphaMode": "BLEND",
      "doubleSided": true,
      "extensions": {
        "KHR_materials_transmission": {
          "transmissionFactor": 0.8369518840438371
        }
      },
      "name": "Glass",
      "pbrMetallicRoughness": {
        "baseColorFactor": [
          0.7044747672633086,
          0.9014421471957679,
          0.9504074916579607,
          0.25
        ],
        "metallicFactor": 0.0,
        "roughnessFactor": 0.6
      }
    },
    {
      "alphaMode": "BLEND",
      "doubleSided": true,
      "extensions": {
        "KHR_materials_transmission": {
          "transmissionFactor": 0.5931416171935
        }
      },
      "name": "Glass.001",
      "pbrMetallicRoughness": {
        "baseColorFactor": [
          0.7315676074249586,
          0.8831564452465822,
          0.9022800986427694,
          0.40685838280649994
        ],
        "metallicFactor": 0.0,
        "roughnessFactor": 0.6
      }
    },
    {
      "doubleSided": true,
      "name": "Plaster",
      "pbrMetallicRoughness": {
        "baseColorFactor": [
          0.7494345424331753,
          0.7494345424331753,
          0.7494345424331753,
          1.0
        ],
        "metallicFactor": 0.0,
        "metallicRoughnessTexture": {
          "index": 2
        }
      }
    },
    {
      "doubleSided": true,
      "name": "white.001",
      "pbrMetallicRoughness": {
        "baseColorFactor": [
          0.828292110066717,
          0.828292110066717,
          0.828292110066717,
          1.0
        ],
        "metallicFactor": 0.0,
        "roughnessFactor": 0.2544769660250393
      }
    }
  ],
  "meshes": [
    {
      "name": "Object_0",
      "primitives": [
        {
          "attributes": {
            "POSITION": 0,
            "TEXCOORD_0": 1
          },
          "indices": 2,
          "material": 3,
          "mode": 1
        }
      ]
    },
    {
      "name": "Object_1",
      "primitives": [
        {
          "attributes": {
            "NORMAL": 4,
            "POSITION": 3,
            "TEXCOORD_0": 5
          },
          "indices": 6,
          "material": 1,
          "mode": 4
        }
      ]
    },
    {
      "name": "Object_2",
      "primitives": [
        {
          "attributes": {
            "NORMAL": 8,
            "POSITION": 7,
            "TEXCOORD_0": 9
          },
          "indices": 10,
          "material": 4,
          "mode": 4
        }
      ]
    },
    {
      "name": "Object_3",
      "primitives": [
        {
          "attributes": {
            "NORMAL": 12,
            "POSITION": 11,
            "TEXCOORD_0": 13
          },
          "indices": 14,
          "material": 0,
          "mode": 4
        }
      ]
    },
    {
      "name": "Object_4",
      "primitives": [
        {
          "attributes": {
            "NORMAL": 16,
            "POSITION": 15,
            "TEXCOORD_0": 17
          },
          "indices": 18,
          "material": 0,
          "mode": 4
        }
      ]
    },
    {
      "name": "Object_5",
      "primitives": [
        {
          "attributes": {
            "NORMAL": 20,
            "POSITION": 19,
            "TEXCOORD_0": 21
          },
          "indices": 22,
          "material": 0,
          "mode": 4
        }
      ]
    },
    {
      "name": "Object_6",
      "primitives": [
        {
          "attributes": {
            "NORMAL": 24,
            "POSITION": 23,
            "TEXCOORD_0": 25
          },
          "indices": 26,
          "material": 0,
          "mode": 4
        }
      ]
    },
    {
      "name": "Object_7",
      "primitives": [
        {
          "attributes": {
            "NORMAL": 28,
            "POSITION": 27,
            "TEXCOORD_0": 29
          },
          "indices": 30,
          "material": 2,
          "mode": 4
        }
      ]
    },
    {
      "name": "Object_8",
      "primitives": [
        {
          "attributes": {
            "NORMAL": 32,
            "POSITION": 31,
            "TEXCOORD_0": 33
          },
          "indices": 34,
          "material": 3,
          "mode": 4
        }
      ]
    },
    {
      "name": "Object_9",
      "primitives": [
        {
          "attributes": {
            "NORMAL": 36,
            "POSITION": 35,
            "TEXCOORD_0": 37
          },
          "indices": 38,
          "material": 5,
          "mode": 4
        }
      ]
    },
    {
      "name": "Object_10",
      "primitives": [
        {
          "attributes": {
            "POSITION": 39,
            "TEXCOORD_0": 40
          },
          "indices": 41,
          "material": 6,
          "mode": 1
        }
      ]
    },
    {
      "name": "Object_11",
      "primitives": [
        {
          "attributes": {
            "NORMAL": 43,
            "POSITION": 42,
            "TEXCOORD_0": 44
          },
          "indices": 45,
          "material": 6,
          "mode": 4
        }
      ]
    },
    {
      "name": "Object_12",
      "primitives": [
        {
          "attributes": {
            "NORMAL": 47,
            "POSITION": 46,
            "TEXCOORD_0": 48
          },
          "indices": 49,
          "material": 6,
          "mode": 4
        }
      ]
    },
    {
      "name": "Object_13",
      "primitives": [
        {
          "attributes": {
            "NORMAL": 51,
            "POSITION": 50,
            "TEXCOORD_0": 52
          },
          "indices": 53,
          "material": 7,
          "mode": 4
        }
      ]
    }
  ],
  "nodes": [
    {
      "children": [
        1
      ],
      "matrix": [
        1.0,
        0.0,
        0.0,
        0.0,
        0.0,
        2.220446049250313e-16,
        -1.0,
        0.0,
        0.0,
        1.0,
        2.220446049250313e-16,
        0.0,
        0.0,
        0.0,
        0.0,
        1.0
      ],
      "name": "Sketchfab_model"
    },
    {
      "children": [
        2,
        3,
        4,
        5,
        6,
        7,
        8,
        9,
        10,
        11,
        12,
        13,
        14,
        15
      ],
      "name": "VR Gallery Vol4_i.obj.cleaner.materialmerger.gles"
    },
    {
      "mesh": 0,
      "name": "Object_2"
    },
    {
      "mesh": 1,
      "name": "Object_3"
    },
    {
      "mesh": 2,
      "name": "Object_4"
    },
    {
      "mesh": 3,
      "name": "Object_5"
    },
    {
      "mesh": 4,
      "name": "Object_6"
    },
    {
      "mesh": 5,
      "name": "Object_7"
    },
    {
      "mesh": 6,
      "name": "Object_8"
    },
    {
      "mesh": 7,
      "name": "Object_9"
    },
    {
      "mesh": 8,
      "name": "Object_10"
    },
    {
      "mesh": 9,
      "name": "Object_11"
    },
    {
      "mesh": 10,
      "name": "Object_12"
    },
    {
      "mesh": 11,
      "name": "Object_13"
    },
    {
      "mesh": 12,
      "name": "Object_14"
    },
    {
      "mesh": 13,
      "name": "Object_15"
    }
  ],
  "samplers": [
    {
      "magFilter": 9729,
      "minFilter": 9987,
      "wrapS": 10497,
      "wrapT": 10497
    }
  ],
  "scene": 0,
  "scenes": [
    {
      "name": "Sketchfab_Scene",
      "nodes": [
        0
      ]
    }
  ],
  "textures": [
    {
      "sampler": 0,
      "source": 0
    },
    {
      "sampler": 0,
      "source": 1
    },
    {
      "sampler": 0,
      "source": 2
    }
  ]
}
