{
  "accessors": [
    {
      "bufferView": 2,
      "componentType": 5126,
      "count": 65532,
      "max": [
        12.188940048217773,
        26.912797927856445,
        13.881959915161133
      ],
      "min": [
        8.60159969329834,
        23.037044525146484,
        -2.230552911758423
      ],
      "type": "VEC3"
    },
    {
      "bufferView": 2,
      "byteOffset": 786384,
      "componentType": 5126,
      "count": 65532,
      "max": [
        0.999995231628418,
        0.9999783635139465,
        0.9999060034751892
      ],
      "min": [
        -0.9999970197677612,
        -0.9999921321868896,
        -0.9999953508377075
      ],
      "type": "VEC3"
    },
    {
      "bufferView": 1,
      "componentType": 5126,
      "count": 65532,
      "max": [
        0.9630789756774902,
        0.9934960007667542
      ],
      "min": [
        0.006647000089287758,
        0.058687999844551086
      ],
      "type": "VEC2"
    },
    {
      "bufferView": 0,
      "componentType": 5125,
      "count": 358104,
      "type": "SCALAR"
    },
    {
      "bufferView": 2,
      "byteOffset": 1572768,
      "componentType": 5126,
      "count": 65532,
      "max": [
        12.851606369018555,
        26.8173770904541,
        10.782252311706543
      ],
      "min": [
        8.506223678588867,
        22.51743507385254,
        -2.217885971069336
      ],
      "type": "VEC3"
    },
    {
      "bufferView": 2,
      "byteOffset": 2359152,
      "componentType": 5126,
      "count": 65532,
      "max": [
        0.9999675154685974,
        0.9999979734420776,
        0.9997944831848145
      ],
      "min": [
        -0.9999977350234985,
        -0.9999974966049194,
        -0.9982737898826599
      ],
      "type": "VEC3"
    },
    {
      "bufferView": 1,
      "byteOffset": 524256,
      "componentType": 5126,
      "count": 65532,
      "max": [
        0.972350001335144,
        0.9835900068283081
      ],
      "min": [
        0.004069000016897917,
        0.02711700089275837
      ],
      "type": "VEC2"
    },
    {
      "bufferView": 0,
      "byteOffset": 1432416,
      "componentType": 5125,
      "count": 330738,
      "type": "SCALAR"
    },
    {
      "bufferView": 2,
      "byteOffset": 3145536,
      "componentType": 5126,
      "count": 65532,
      "max": [
        13.01302719116211,
        26.90690803527832,
        10.188138961791992
      ],
      "min": [
        8.630242347717285,
        23.361980438232422,
        -2.20273494720459
      ],
      "type": "VEC3"
    },
    {
      "bufferView": 2,
      "byteOffset": 3931920,
      "componentType": 5126,
      "count": 65532,
      "max": [
        0.9999988675117493,
        0.9999979734420776,
        0.9994549751281738
      ],
      "min": [
        -0.999925971031189,
        -0.9999974966049194,
        -0.9999703764915466
      ],
      "type": "VEC3"
    },
    {
      "bufferView": 1,
      "byteOffset": 1048512,
      "componentType": 5126,
      "count": 65532,
      "max": [
        0.9719330072402954,
        0.9830399751663208
      ],
      "min": [
        0.009486000053584576,
        0.0036929999478161335
      ],
      "type": "VEC2"
    },
    {
      "bufferView": 0,
      "byteOffset": 2755368,
      "componentType": 5125,
      "count": 317271,
      "type": "SCALAR"
    },
    {
      "bufferView": 2,
      "byteOffset": 4718304,
      "componentType": 5126,
      "count": 65532,
      "max": [
        12.997477531433105,
        26.801376342773438,
        7.79264497756958
      ],
      "min": [
        8.634503364562988,
        22.46317481994629,
        -1.983214020729065
      ],
      "type": "VEC3"
    },
    {
      "bufferView": 2,
      "byteOffset": 5504688,
      "componentType": 5126,
      "count": 65532,
      "max": [
        1.0,
        0.9999834895133972,
        0.9903311133384705
      ],
      "min": [
        -0.9999993443489075,
        -1.0,
        -0.9998939037322998
      ],
      "type": "VEC3"
    },
    {
      "bufferView": 1,
      "byteOffset": 1572768,
      "componentType": 5126,
      "count": 65532,
      "max": [
        0.9749429821968079,
        0.9959210157394409
      ],
      "min": [
        0.03310000151395798,
        0.0048409998416900635
      ],
      "type": "VEC2"
    },
    {
      "bufferView": 0,
      "byteOffset": 4024452,
      "componentType": 5125,
      "count": 320049,
      "type": "SCALAR"
    },
    {
      "bufferView": 2,
      "byteOffset": 6291072,
      "componentType": 5126,
      "count": 65532,
      "max": [
        12.376002311706543,
        26.594757080078125,
        6.703693866729736
      ],
      "min": [
        9.154470443725586,
        22.463512420654297,
        -2.115262985229492
      ],
      "type": "VEC3"
    },
    {
      "bufferView": 2,
      "byteOffset": 7077456,
      "componentType": 5126,
      "count": 65532,
      "max": [
        0.9999986290931702,
        0.9999834895133972,
        0.9953157901763916
      ],
      "min": [
        -0.9999852180480957,
        -0.9999969005584717,
        -0.9991315007209778
      ],
      "type": "VEC3"
    },
    {
      "bufferView": 1,
      "byteOffset": 2097024,
      "componentType": 5126,
      "count": 65532,
      "max": [
        0.9884420037269592,
        0.9963439702987671
      ],
      "min": [
        0.006709999870508909,
        0.0204670000821352
      ],
      "type": "VEC2"
    },
    {
      "bufferView": 0,
      "byteOffset": 5304648,
      "componentType": 5125,
      "count": 318510,
      "type": "SCALAR"
    },
    {
      "bufferView": 2,
      "byteOffset": 7863840,
      "componentType": 5126,
      "count": 65532,
      "max": [
        12.276138305664063,
        26.609039306640625,
        1.417693018913269
      ],
      "min": [
        9.185710906982422,
        22.637475967407227,
        -2.2178850173950195
      ],
      "type": "VEC3"
    },
    {
      "bufferView": 2,
      "byteOffset": 8650224,
      "componentType": 5126,
      "count": 65532,
      "max": [
        1.0,
        0.9999984502792358,
        0.9999687671661377
      ],
      "min": [
        -0.9999915361404419,
        -1.0,
        -0.999945342540741
      ],
      "type": "VEC3"
    },
    {
      "bufferView": 1,
      "byteOffset": 2621280,
      "componentType": 5126,
      "count": 65532,
      "max": [
        0.997672975063324,
        0.9994969964027405
      ],
      "min": [
        0.0007670000195503235,
        0.0020749999675899744
      ],
      "type": "VEC2"
    },
    {
      "bufferView": 0,
      "byteOffset": 6578688,
      "componentType": 5125,
      "count": 292800,
      "type": "SCALAR"
    },
    {
      "bufferView": 2,
      "byteOffset": 9436608,
      "componentType": 5126,
      "count": 65532,
      "max": [
        12.851987838745117,
        26.723176956176758,
        7.190690040588379
      ],
      "min": [
        8.506329536437988,
        22.463512420654297,
        -0.6226119995117188
      ],
      "type": "VEC3"
    },
    {
      "bufferView": 2,
      "byteOffset": 10222992,
      "componentType": 5126,
      "count": 65532,
      "max": [
        0.9999993443489075,
        0.9999982118606567,
        0.9720748662948608
      ],
      "min": [
        -0.9999828934669495,
        -0.9999969005584717,
        -0.9999967813491821
      ],
      "type": "VEC3"
    },
    {
      "bufferView": 1,
      "byteOffset": 3145536,
      "componentType": 5126,
      "count": 65532,
      "max": [
        0.9966750144958496,
        0.9991610050201416
      ],
      "min": [
        0.01901799999177456,
        0.01054299995303154
      ],
      "type": "VEC2"
    },
    {
      "bufferView": 0,
      "byteOffset": 7749888,
      "componentType": 5125,
      "count": 285126,
      "type": "SCALAR"
    },
    {
      "bufferView": 2,
      "byteOffset": 11009376,
      "componentType": 5126,
      "count": 22245,
      "max": [
        12.994548797607422,
        26.798452377319336,
        7.419940948486328
      ],
      "min": [
        8.536346435546875,
        23.210758209228516,
        5.6837849617004395
      ],
      "type": "VEC3"
    },
    {
      "bufferView": 2,
      "byteOffset": 11276316,
      "componentType": 5126,
      "count": 22245,
      "max": [
        1.0,
        0.9999200105667114,
        0.9808774590492249
      ],
      "min": [
        -0.9998618960380554,
        -0.9999904632568359,
        -0.9998213648796082
      ],
      "type": "VEC3"
    },
    {
      "bufferView": 1,
      "byteOffset": 3669792,
      "componentType": 5126,
      "count": 22245,
      "max": [
        0.976589024066925,
        0.999239981174469
      ],
      "min": [
        0.021316999569535255,
        0.003963999915868044
      ],
      "type": "VEC2"
    },
    {
      "bufferView": 0,
      "byteOffset": 8890392,
      "componentType": 5125,
      "count": 80784,
      "type": "SCALAR"
    }
  ],
  "asset": {
    "extras": {
      "author": "danielpett (https://sketchfab.com/danielpett)",
      "license": "CC-BY-NC-4.0 (http://creativecommons.org/licenses/by-nc/4.0/)",
      "source": "https://sketchfab.com/3d-models/caryatid-d98b01ccbe464c21ba52312e78e65a55",
      "title": "Caryatid"
    },
    "generator": "Sketchfab-14.14.0",
    "version": "2.0"
  },
  "bufferViews": [
    {
      "buffer": 0,
      "byteLength": 9213528,
      "name": "floatBufferViews",
      "target": 34963
    },
    {
      "buffer": 0,
      "byteLength": 3847752,
      "byteOffset": 9213528,
      "byteStride": 8,
      "name": "floatBufferViews",
      "target": 34962
    },
    {
      "buffer": 0,
      "byteLength": 11543256,
      "byteOffset": 13061280,
      "byteStride": 12,
      "name": "floatBufferViews",
      "target": 34962
    }
  ],
  "buffers": [
    {
      "byteLength": 24604536,
      "uri": "scene.bin"
    }
  ],
  "images": [
    {
      "uri": "textures/caryatid_baseColor.jpeg"
    }
  ],
  "materials": [
    {
      "doubleSided": true,
      "name": "caryatid",
      "pbrMetallicRoughness": {
        "baseColorTexture": {
          "index": 0
        },
        "metallicFactor": 0.0
      }
    }
  ],
  "meshes": [
    {
      "name": "Object_0",
      "primitives": [
        {
          "attributes": {
            "NORMAL": 1,
            "POSITION": 0,
            "TEXCOORD_0": 2
          },
          "indices": 3,
          "material": 0,
          "mode": 4
        }
      ]
    },
    {
      "name": "Object_1",
      "primitives": [
        {
          "attributes": {
            "NORMAL": 5,
            "POSITION": 4,
            "TEXCOORD_0": 6
          },
          "indices": 7,
          "material": 0,
          "mode": 4
        }
      ]
    },
    {
      "name": "Object_2",
      "primitives": [
        {
          "attributes": {
            "NORMAL": 9,
            "POSITION": 8,
            "TEXCOORD_0": 10
          },
          "indices": 11,
          "material": 0,
          "mode": 4
        }
      ]
    },
    {
      "name": "Object_3",
      "primitives": [
        {
          "attributes": {
            "NORMAL": 13,
            "POSITION": 12,
            "TEXCOORD_0": 14
          },
          "indices": 15,
          "material": 0,
          "mode": 4
        }
      ]
    },
    {
      "name": "Object_4",
      "primitives": [
        {
          "attributes": {
            "NORMAL": 17,
            "POSITION": 16,
            "TEXCOORD_0": 18
          },
          "indices": 19,
          "material": 0,
          "mode": 4
        }
      ]
    },
    {
      "name": "Object_5",
      "primitives": [
        {
          "attributes": {
            "NORMAL": 21,
            "POSITION": 20,
            "TEXCOORD_0": 22
          },
          "indices": 23,
          "material": 0,
          "mode": 4
        }
      ]
    },
    {
      "name": "Object_6",
      "primitives": [
        {
          "attributes": {
            "NORMAL": 25,
            "POSITION": 24,
            "TEXCOORD_0": 26
          },
          "indices": 27,
          "material": 0,
          "mode": 4
        }
      ]
    },
    {
      "name": "Object_7",
      "primitives": [
        {
          "attributes": {
            "NORMAL": 29,
            "POSITION": 28,
            "TEXCOORD_0": 30
          },
          "indices": 31,
          "material": 0,
          "mode": 4
        }
      ]
    }
  ],
  "nodes": [
    {
      "children": [
        1
      ],
      "matrix": [
        1.0,
        0.0,
        0.0,
        0.0,
        0.0,
        2.220446049250313e-16,
        -1.0,
        0.0,
        0.0,
        1.0,
        2.220446049250313e-16,
        0.0,
        0.0,
        0.0,
        0.0,
        1.0
      ],
      "name": "Sketchfab_model"
    },
    {
      "children": [
        2,
        3,
        4,
        5,
        6,
        7,
        8,
        9
      ],
      "name": "caryatid.obj.cleaner.materialmerger.gles"
    },
    {
      "mesh": 0,
      "name": "Object_2"
    },
    {
      "mesh": 1,
      "name": "Object_3"
    },
    {
      "mesh": 2,
      "name": "Object_4"
    },
    {
      "mesh": 3,
      "name": "Object_5"
    },
    {
      "mesh": 4,
      "name": "Object_6"
    },
    {
      "mesh": 5,
      "name": "Object_7"
    },
    {
      "mesh": 6,
      "name": "Object_8"
    },
    {
      "mesh": 7,
      "name": "Object_9"
    }
  ],
  "samplers": [
    {
      "magFilter": 9729,
      "minFilter": 9987,
      "wrapS": 10497,
      "wrapT": 10497
    }
  ],
  "scene": 0,
  "scenes": [
    {
      "name": "Sketchfab_Scene",
      "nodes": [
        0
      ]
    }
  ],
  "textures": [
    {
      "sampler": 0,
      "source": 0
    }
  ]
}
