{
  "accessors": [
    {
      "bufferView": 2,
      "componentType": 5126,
      "count": 442,
      "max": [
        2.0744330883026123,
        2.236706018447876,
        0.4548589885234833
      ],
      "min": [
        0.7066400051116943,
        2.0962929725646973,
        0.10610400140285492
      ],
      "type": "VEC3"
    },
    {
      "bufferView": 2,
      "byteOffset": 5304,
      "componentType": 5126,
      "count": 442,
      "max": [
        0.023775614798069,
        0.9432722926139832,
        1.0
      ],
      "min": [
        -0.014514196664094925,
        3.065010241698474e-05,
        -1.0
      ],
      "type": "VEC3"
    },
    {
      "bufferView": 1,
      "componentType": 5126,
      "count": 442,
      "max": [
        0.0,
        0.0
      ],
      "min": [
        0.0,
        0.0
      ],
      "type": "VEC2"
    },
    {
      "bufferView": 0,
      "componentType": 5125,
      "count": 966,
      "type": "SCALAR"
    },
    {
      "bufferView": 2,
      "byteOffset": 10608,
      "componentType": 5126,
      "count": 65532,
      "max": [
        2.1265439987182617,
        2.2367429733276367,
        5.957271099090576
      ],
      "min": [
        -3.1680819988250732,
        -1.7968900203704834,
        0.10610400140285492
      ],
      "type": "VEC3"
    },
    {
      "bufferView": 2,
      "byteOffset": 796992,
      "componentType": 5126,
      "count": 65532,
      "max": [
        1.0,
        1.0,
        0.9999593496322632
      ],
      "min": [
        -1.0,
        -1.0,
        -0.9999470710754395
      ],
      "type": "VEC3"
    },
    {
      "bufferView": 1,
      "byteOffset": 3536,
      "componentType": 5126,
      "count": 65532,
      "max": [
        0.9890440106391907,
        0.9979760050773621
      ],
      "min": [
        0.0025239998940378428,
        0.0028810000512748957
      ],
      "type": "VEC2"
    },
    {
      "bufferView": 0,
      "byteOffset": 3864,
      "componentType": 5125,
      "count": 342312,
      "type": "SCALAR"
    },
    {
      "bufferView": 2,
      "byteOffset": 1583376,
      "componentType": 5126,
      "count": 65532,
      "max": [
        2.1163148880004883,
        2.230077028274536,
        5.7937798500061035
      ],
      "min": [
        -3.2138800621032715,
        -1.8994359970092773,
        0.23350299894809723
      ],
      "type": "VEC3"
    },
    {
      "bufferView": 2,
      "byteOffset": 2369760,
      "componentType": 5126,
      "count": 65532,
      "max": [
        0.9999997615814209,
        0.9942793846130371,
        0.999988317489624
      ],
      "min": [
        -0.9999998807907104,
        -0.9999991655349731,
        -0.9999445676803589
      ],
      "type": "VEC3"
    },
    {
      "bufferView": 1,
      "byteOffset": 527792,
      "componentType": 5126,
      "count": 65532,
      "max": [
        0.9884380102157593,
        0.9979760050773621
      ],
      "min": [
        0.0025239998940378428,
        0.0027570000384002924
      ],
      "type": "VEC2"
    },
    {
      "bufferView": 0,
      "byteOffset": 1373112,
      "componentType": 5125,
      "count": 320004,
      "type": "SCALAR"
    },
    {
      "bufferView": 2,
      "byteOffset": 3156144,
      "componentType": 5126,
      "count": 65532,
      "max": [
        2.018224000930786,
        1.5796020030975342,
        7.017149925231934
      ],
      "min": [
        -3.0049490928649902,
        -1.510079026222229,
        0.4457150101661682
      ],
      "type": "VEC3"
    },
    {
      "bufferView": 2,
      "byteOffset": 3942528,
      "componentType": 5126,
      "count": 65532,
      "max": [
        0.9998657703399658,
        0.9999353885650635,
        0.9999887943267822
      ],
      "min": [
        -0.9999727010726929,
        -0.9999628067016602,
        -0.999921441078186
      ],
      "type": "VEC3"
    },
    {
      "bufferView": 1,
      "byteOffset": 1052048,
      "componentType": 5126,
      "count": 65532,
      "max": [
        0.9840940237045288,
        0.9979760050773621
      ],
      "min": [
        0.0012069999938830733,
        0.0019529999699443579
      ],
      "type": "VEC2"
    },
    {
      "bufferView": 0,
      "byteOffset": 2653128,
      "componentType": 5125,
      "count": 308634,
      "type": "SCALAR"
    },
    {
      "bufferView": 2,
      "byteOffset": 4728912,
      "componentType": 5126,
      "count": 65532,
      "max": [
        2.8591229915618896,
        2.232635021209717,
        7.030818939208984
      ],
      "min": [
        -2.832705020904541,
        -1.3115630149841309,
        0.25896498560905457
      ],
      "type": "VEC3"
    },
    {
      "bufferView": 2,
      "byteOffset": 5515296,
      "componentType": 5126,
      "count": 65532,
      "max": [
        0.9999635219573975,
        0.9999955892562866,
        0.999893307685852
      ],
      "min": [
        -0.9999852180480957,
        -0.9999568462371826,
        -0.9997677206993103
      ],
      "type": "VEC3"
    },
    {
      "bufferView": 1,
      "byteOffset": 1576304,
      "componentType": 5126,
      "count": 65532,
      "max": [
        0.9836289882659912,
        0.9945719838142395
      ],
      "min": [
        0.0023950000759214163,
        0.005934000015258789
      ],
      "type": "VEC2"
    },
    {
      "bufferView": 0,
      "byteOffset": 3887664,
      "componentType": 5125,
      "count": 300714,
      "type": "SCALAR"
    },
    {
      "bufferView": 2,
      "byteOffset": 6301680,
      "componentType": 5126,
      "count": 65532,
      "max": [
        2.852386951446533,
        2.2364649772644043,
        6.992730140686035
      ],
      "min": [
        -3.006469964981079,
        -1.5607359409332275,
        0.10654599964618683
      ],
      "type": "VEC3"
    },
    {
      "bufferView": 2,
      "byteOffset": 7088064,
      "componentType": 5126,
      "count": 65532,
      "max": [
        0.9999983310699463,
        0.9999974966049194,
        0.999988317489624
      ],
      "min": [
        -0.9999995231628418,
        -0.9999996423721313,
        -0.9994526505470276
      ],
      "type": "VEC3"
    },
    {
      "bufferView": 1,
      "byteOffset": 2100560,
      "componentType": 5126,
      "count": 65532,
      "max": [
        0.9889219999313354,
        0.9979760050773621
      ],
      "min": [
        0.0025239998940378428,
        0.0027759999502450228
      ],
      "type": "VEC2"
    },
    {
      "bufferView": 0,
      "byteOffset": 5090520,
      "componentType": 5125,
      "count": 269826,
      "type": "SCALAR"
    },
    {
      "bufferView": 2,
      "byteOffset": 7874448,
      "componentType": 5126,
      "count": 65532,
      "max": [
        1.8184560537338257,
        2.1967620849609375,
        7.14300012588501
      ],
      "min": [
        -3.0247390270233154,
        -1.8890000581741333,
        0.10679899901151657
      ],
      "type": "VEC3"
    },
    {
      "bufferView": 2,
      "byteOffset": 8660832,
      "componentType": 5126,
      "count": 65532,
      "max": [
        0.99998939037323,
        0.9999995231628418,
        0.9999294281005859
      ],
      "min": [
        -0.9999995231628418,
        -0.9999966621398926,
        -0.9999585151672363
      ],
      "type": "VEC3"
    },
    {
      "bufferView": 1,
      "byteOffset": 2624816,
      "componentType": 5126,
      "count": 65532,
      "max": [
        0.9970290064811707,
        0.9928709864616394
      ],
      "min": [
        0.0025239998940378428,
        0.003298999974504113
      ],
      "type": "VEC2"
    },
    {
      "bufferView": 0,
      "byteOffset": 6169824,
      "componentType": 5125,
      "count": 279801,
      "type": "SCALAR"
    },
    {
      "bufferView": 2,
      "byteOffset": 9447216,
      "componentType": 5126,
      "count": 31039,
      "max": [
        1.80561101436615,
        2.1708059310913086,
        4.48545503616333
      ],
      "min": [
        -1.8680670261383057,
        -1.1243369579315186,
        0.4808099865913391
      ],
      "type": "VEC3"
    },
    {
      "bufferView": 2,
      "byteOffset": 9819684,
      "componentType": 5126,
      "count": 31039,
      "max": [
        0.9999979734420776,
        0.9999970197677612,
        0.9999377727508545
      ],
      "min": [
        -0.9996368288993835,
        -0.9998448491096497,
        -0.9999585151672363
      ],
      "type": "VEC3"
    },
    {
      "bufferView": 1,
      "byteOffset": 3149072,
      "componentType": 5126,
      "count": 31039,
      "max": [
        0.9971449971199036,
        0.9979760050773621
      ],
      "min": [
        0.0018319999799132347,
        0.0019710001070052385
      ],
      "type": "VEC2"
    },
    {
      "bufferView": 0,
      "byteOffset": 7289028,
      "componentType": 5125,
      "count": 110934,
      "type": "SCALAR"
    },
    {
      "bufferView": 2,
      "byteOffset": 10192152,
      "componentType": 5126,
      "count": 10894,
      "max": [
        2.147818088531494,
        2.2560930252075195,
        0.10610499978065491
      ],
      "min": [
        -2.9688479900360107,
        -1.5866990089416504,
        0.09829600155353546
      ],
      "type": "VEC3"
    },
    {
      "bufferView": 2,
      "byteOffset": 10322880,
      "componentType": 5126,
      "count": 10894,
      "max": [
        0.9999978542327881,
        0.9999595880508423,
        1.0
      ],
      "min": [
        -1.0,
        -0.9999539852142334,
        -1.0
      ],
      "type": "VEC3"
    },
    {
      "bufferView": 1,
      "byteOffset": 3397384,
      "componentType": 5126,
      "count": 10894,
      "max": [
        0.8297860026359558,
        0.9071369767189026
      ],
      "min": [
        0.6198350191116333,
        0.037654999643564224
      ],
      "type": "VEC2"
    },
    {
      "bufferView": 0,
      "byteOffset": 7732764,
      "componentType": 5125,
      "count": 12273,
      "type": "SCALAR"
    }
  ],
  "asset": {
    "extras": {
      "author": "noe-3d.at (https://sketchfab.com/www.noe-3d.at)",
      "license": "CC0-1.0 (http://creativecommons.org/publicdomain/zero/1.0/)",
      "source": "https://sketchfab.com/3d-models/thukydides-688f9cc6e2dd4b0aa38344bf0e59b770",
      "title": "Thukydides"
    },
    "generator": "Sketchfab-15.23.0",
    "version": "2.0"
  },
  "bufferViews": [
    {
      "buffer": 0,
      "byteLength": 7781856,
      "name": "floatBufferViews",
      "target": 34963
    },
    {
      "buffer": 0,
      "byteLength": 3484536,
      "byteOffset": 7781856,
      "byteStride": 8,
      "name": "floatBufferViews",
      "target": 34962
    },
    {
      "buffer": 0,
      "byteLength": 10453608,
      "byteOffset": 11266392,
      "byteStride": 12,
      "name": "floatBufferViews",
      "target": 34962
    }
  ],
  "buffers": [
    {
      "byteLength": 21720000,
      "uri": "scene.bin"
    }
  ],
  "extensionsUsed": [
    "KHR_materials_specular"
  ],
  "images": [
    {
      "uri": "textures/Thukydides_O_Material_u1_v1_baseColor.png"
    }
  ],
  "materials": [
    {
      "doubleSided": true,
      "extensions": {
        "KHR_materials_specular": {
          "specularColorFactor": [
            1.0,
            1.0,
            1.0
          ],
          "specularFactor": 0.0
        }
      },
      "name": "Thukydides_O_Material_u1_v1",
      "pbrMetallicRoughness": {
        "baseColorTexture": {
          "index": 0
        },
        "metallicFactor": 0.0
      }
    },
    {
      "doubleSided": true,
      "extensions": {
        "KHR_materials_specular": {
          "specularColorFactor": [
            1.0,
            1.0,
            1.0
          ],
          "specularFactor": 0.0
        }
      },
      "name": "bottom",
      "pbrMetallicRoughness": {
        "baseColorFactor": [
          0.14538459735702147,
          0.14758262294780816,
          0.09271785972195278,
          1.0
        ],
        "metallicFactor": 0.0
      }
    }
  ],
  "meshes": [
    {
      "name": "Object_0",
      "primitives": [
        {
          "attributes": {
            "NORMAL": 1,
            "POSITION": 0,
            "TEXCOORD_0": 2
          },
          "indices": 3,
          "material": 0,
          "mode": 4
        }
      ]
    },
    {
      "name": "Object_1",
      "primitives": [
        {
          "attributes": {
            "NORMAL": 5,
            "POSITION": 4,
            "TEXCOORD_0": 6
          },
          "indices": 7,
          "material": 0,
          "mode": 4
        }
      ]
    },
    {
      "name": "Object_2",
      "primitives": [
        {
          "attributes": {
            "NORMAL": 9,
            "POSITION": 8,
            "TEXCOORD_0": 10
          },
          "indices": 11,
          "material": 0,
          "mode": 4
        }
      ]
    },
    {
      "name": "Object_3",
      "primitives": [
        {
          "attributes": {
            "NORMAL": 13,
            "POSITION": 12,
            "TEXCOORD_0": 14
          },
          "indices": 15,
          "material": 0,
          "mode": 4
        }
      ]
    },
    {
      "name": "Object_4",
      "primitives": [
        {
          "attributes": {
            "NORMAL": 17,
            "POSITION": 16,
            "TEXCOORD_0": 18
          },
          "indices": 19,
          "material": 0,
          "mode": 4
        }
      ]
    },
    {
      "name": "Object_5",
      "primitives": [
        {
          "attributes": {
            "NORMAL": 21,
            "POSITION": 20,
            "TEXCOORD_0": 22
          },
          "indices": 23,
          "material": 0,
          "mode": 4
        }
      ]
    },
    {
      "name": "Object_6",
      "primitives": [
        {
          "attributes": {
            "NORMAL": 25,
            "POSITION": 24,
            "TEXCOORD_0": 26
          },
          "indices": 27,
          "material": 0,
          "mode": 4
        }
      ]
    },
    {
      "name": "Object_7",
      "primitives": [
        {
          "attributes": {
            "NORMAL": 29,
            "POSITION": 28,
            "TEXCOORD_0": 30
          },
          "indices": 31,
          "material": 0,
          "mode": 4
        }
      ]
    },
    {
      "name": "Object_8",
      "primitives": [
        {
          "attributes": {
            "NORMAL": 33,
            "POSITION": 32,
            "TEXCOORD_0": 34
          },
          "indices": 35,
          "material": 1,
          "mode": 4
        }
      ]
    }
  ],
  "nodes": [
    {
      "children": [
        1
      ],
      "matrix": [
        0.9999379515647888,
        -2.474069088005279e-18,
        0.011142216622829437,
        0.0,
        0.011142216622829437,
        2.2203082740474862e-16,
        -0.9999379515647888,
        0.0,
        0.0,
        1.0,
        2.220446049250313e-16,
        0.0,
        0.0,
        0.0,
        0.0,
        1.0
      ],
      "name": "Sketchfab_model"
    },
    {
      "children": [
        2,
        3,
        4,
        5,
        6,
        7,
        8,
        9,
        10
      ],
      "name": "Thukydides_CN.obj.cleaner.materialmerger.gles"
    },
    {
      "mesh": 0,
      "name": "Object_2"
    },
    {
      "mesh": 1,
      "name": "Object_3"
    },
    {
      "mesh": 2,
      "name": "Object_4"
    },
    {
      "mesh": 3,
      "name": "Object_5"
    },
    {
      "mesh": 4,
      "name": "Object_6"
    },
    {
      "mesh": 5,
      "name": "Object_7"
    },
    {
      "mesh": 6,
      "name": "Object_8"
    },
    {
      "mesh": 7,
      "name": "Object_9"
    },
    {
      "mesh": 8,
      "name": "Object_10"
    }
  ],
  "samplers": [
    {
      "magFilter": 9729,
      "minFilter": 9987,
      "wrapS": 10497,
      "wrapT": 10497
    }
  ],
  "scene": 0,
  "scenes": [
    {
      "name": "Sketchfab_Scene",
      "nodes": [
        0
      ]
    }
  ],
  "textures": [
    {
      "sampler": 0,
      "source": 0
    }
  ]
}
