{
  "accessors": [
    {
      "bufferView": 2,
      "componentType": 5126,
      "count": 65532,
      "max": [
        1.6074849367141724,
        7.426281929016113,
        0.9751341938972473
      ],
      "min": [
        -3.3350977897644043,
        -4.269179344177246,
        -4.2804436683654785
      ],
      "type": "VEC3"
    },
    {
      "bufferView": 2,
      "byteOffset": 786384,
      "componentType": 5126,
      "count": 65532,
      "max": [
        0.9999880790710449,
        0.9998264312744141,
        0.9999878406524658
      ],
      "min": [
        -0.999902069568634,
        -0.9999988675117493,
        -0.9999904036521912
      ],
      "type": "VEC3"
    },
    {
      "bufferView": 1,
      "componentType": 5126,
      "count": 65532,
      "max": [
        0.9988518357276917,
        0.9989500641822815
      ],
      "min": [
        0.0010774782858788967,
        0.0009374618530273438
      ],
      "type": "VEC2"
    },
    {
      "bufferView": 0,
      "componentType": 5125,
      "count": 327993,
      "type": "SCALAR"
    },
    {
      "bufferView": 2,
      "byteOffset": 1572768,
      "componentType": 5126,
      "count": 65532,
      "max": [
        1.250131368637085,
        7.530370712280273,
        0.9514283537864685
      ],
      "min": [
        -3.3275868892669678,
        2.516752004623413,
        -4.273199558258057
      ],
      "type": "VEC3"
    },
    {
      "bufferView": 2,
      "byteOffset": 2359152,
      "componentType": 5126,
      "count": 65532,
      "max": [
        0.9999599456787109,
        0.9990631937980652,
        0.9999716281890869
      ],
      "min": [
        -0.9999593496322632,
        -0.9999997615814209,
        -0.9997164011001587
      ],
      "type": "VEC3"
    },
    {
      "bufferView": 1,
      "byteOffset": 524256,
      "componentType": 5126,
      "count": 65532,
      "max": [
        0.9990077018737793,
        0.9989393949508667
      ],
      "min": [
        0.001042775227688253,
        0.0019153952598571777
      ],
      "type": "VEC2"
    },
    {
      "bufferView": 0,
      "byteOffset": 1311972,
      "componentType": 5125,
      "count": 324117,
      "type": "SCALAR"
    },
    {
      "bufferView": 2,
      "byteOffset": 3145536,
      "componentType": 5126,
      "count": 64410,
      "max": [
        1.6030473709106445,
        7.426260948181152,
        0.9722688794136047
      ],
      "min": [
        -3.323514699935913,
        -1.6276925802230835,
        -4.244454383850098
      ],
      "type": "VEC3"
    },
    {
      "bufferView": 2,
      "byteOffset": 3918456,
      "componentType": 5126,
      "count": 64410,
      "max": [
        0.999972939491272,
        0.9998739957809448,
        0.9999961256980896
      ],
      "min": [
        -0.9999999403953552,
        -0.9999969005584717,
        -0.999984085559845
      ],
      "type": "VEC3"
    },
    {
      "bufferView": 1,
      "byteOffset": 1048512,
      "componentType": 5126,
      "count": 64410,
      "max": [
        0.999043881893158,
        0.9989530444145203
      ],
      "min": [
        0.0010419723112136126,
        0.0017793774604797363
      ],
      "type": "VEC2"
    },
    {
      "bufferView": 0,
      "byteOffset": 2608440,
      "componentType": 5125,
      "count": 301212,
      "type": "SCALAR"
    },
    {
      "bufferView": 2,
      "byteOffset": 4691376,
      "componentType": 5126,
      "count": 65532,
      "max": [
        1.6074849367141724,
        7.2942609786987305,
        -0.0020127666648477316
      ],
      "min": [
        -3.3350977897644043,
        -4.026689052581787,
        -3.5357587337493896
      ],
      "type": "VEC3"
    },
    {
      "bufferView": 2,
      "byteOffset": 5477760,
      "componentType": 5126,
      "count": 65532,
      "max": [
        0.999931812286377,
        0.9981708526611328,
        0.9999876618385315
      ],
      "min": [
        -0.9999986886978149,
        -0.999954342842102,
        -0.9999991655349731
      ],
      "type": "VEC3"
    },
    {
      "bufferView": 1,
      "byteOffset": 1563792,
      "componentType": 5126,
      "count": 65532,
      "max": [
        0.9980750679969788,
        0.9989320039749146
      ],
      "min": [
        0.0010617682710289955,
        0.0017203092575073242
      ],
      "type": "VEC2"
    },
    {
      "bufferView": 0,
      "byteOffset": 3813288,
      "componentType": 5125,
      "count": 353097,
      "type": "SCALAR"
    },
    {
      "bufferView": 2,
      "byteOffset": 6264144,
      "componentType": 5126,
      "count": 65532,
      "max": [
        1.6030744314193726,
        7.367034435272217,
        0.9494673013687134
      ],
      "min": [
        -3.283738136291504,
        -0.2997344732284546,
        -3.5357587337493896
      ],
      "type": "VEC3"
    },
    {
      "bufferView": 2,
      "byteOffset": 7050528,
      "componentType": 5126,
      "count": 65532,
      "max": [
        0.9999975562095642,
        0.9829898476600647,
        0.9999914765357971
      ],
      "min": [
        -0.9999997615814209,
        -0.9999998807907104,
        -0.9999960064888
      ],
      "type": "VEC3"
    },
    {
      "bufferView": 1,
      "byteOffset": 2088048,
      "componentType": 5126,
      "count": 65532,
      "max": [
        0.9911490678787231,
        0.998957633972168
      ],
      "min": [
        0.0010516581824049354,
        0.0020697712898254395
      ],
      "type": "VEC2"
    },
    {
      "bufferView": 0,
      "byteOffset": 5225676,
      "componentType": 5125,
      "count": 347931,
      "type": "SCALAR"
    },
    {
      "bufferView": 2,
      "byteOffset": 7836912,
      "componentType": 5126,
      "count": 573,
      "max": [
        0.17512458562850952,
        1.8808400630950928,
        -0.26264533400535583
      ],
      "min": [
        -1.7745863199234009,
        -0.29987117648124695,
        -2.02888560295105
      ],
      "type": "VEC3"
    },
    {
      "bufferView": 2,
      "byteOffset": 7843788,
      "componentType": 5126,
      "count": 573,
      "max": [
        0.9994709491729736,
        0.6899883151054382,
        0.992186963558197
      ],
      "min": [
        -0.8819688558578491,
        -0.4810780882835388,
        -0.9969350099563599
      ],
      "type": "VEC3"
    },
    {
      "bufferView": 1,
      "byteOffset": 2612304,
      "componentType": 5126,
      "count": 573,
      "max": [
        0.9971591830253601,
        0.8852401375770569
      ],
      "min": [
        0.019569410011172295,
        0.11023467779159546
      ],
      "type": "VEC2"
    },
    {
      "bufferView": 0,
      "byteOffset": 6617400,
      "componentType": 5125,
      "count": 849,
      "type": "SCALAR"
    },
    {
      "bufferView": 2,
      "byteOffset": 7850664,
      "componentType": 5126,
      "count": 65532,
      "max": [
        0.5471392869949341,
        7.579690933227539,
        -0.00292917899787426
      ],
      "min": [
        -3.3350977897644043,
        -3.9361047744750977,
        -4.2804436683654785
      ],
      "type": "VEC3"
    },
    {
      "bufferView": 2,
      "byteOffset": 8637048,
      "componentType": 5126,
      "count": 65532,
      "max": [
        0.9999494552612305,
        0.997698187828064,
        0.9999990463256836
      ],
      "min": [
        -0.9999713897705078,
        -0.9999967813491821,
        -0.9999822974205017
      ],
      "type": "VEC3"
    },
    {
      "bufferView": 1,
      "byteOffset": 2616888,
      "componentType": 5126,
      "count": 65532,
      "max": [
        0.9950463175773621,
        0.9989392161369324
      ],
      "min": [
        0.0011118589900434017,
        0.0047661662101745605
      ],
      "type": "VEC2"
    },
    {
      "bufferView": 0,
      "byteOffset": 6620796,
      "componentType": 5125,
      "count": 345513,
      "type": "SCALAR"
    },
    {
      "bufferView": 2,
      "byteOffset": 9423432,
      "componentType": 5126,
      "count": 54504,
      "max": [
        1.312674641609192,
        7.5864176750183105,
        0.9672420620918274
      ],
      "min": [
        -3.328906536102295,
        -1.6175514459609985,
        -4.2241950035095215
      ],
      "type": "VEC3"
    },
    {
      "bufferView": 2,
      "byteOffset": 10077480,
      "componentType": 5126,
      "count": 54504,
      "max": [
        0.999946653842926,
        0.944845974445343,
        0.999969482421875
      ],
      "min": [
        -0.9999799132347107,
        -0.9999961256980896,
        -0.999997079372406
      ],
      "type": "VEC3"
    },
    {
      "bufferView": 1,
      "byteOffset": 3141144,
      "componentType": 5126,
      "count": 54504,
      "max": [
        0.9971058368682861,
        0.9989399313926697
      ],
      "min": [
        0.0010534070897847414,
        0.007106602191925049
      ],
      "type": "VEC2"
    },
    {
      "bufferView": 0,
      "byteOffset": 8002848,
      "componentType": 5125,
      "count": 270204,
      "type": "SCALAR"
    },
    {
      "bufferView": 2,
      "byteOffset": 10731528,
      "componentType": 5126,
      "count": 65532,
      "max": [
        1.6074849367141724,
        7.437223434448242,
        0.9751341938972473
      ],
      "min": [
        -3.3350977897644043,
        -4.2599945068359375,
        -4.2804436683654785
      ],
      "type": "VEC3"
    },
    {
      "bufferView": 2,
      "byteOffset": 11517912,
      "componentType": 5126,
      "count": 65532,
      "max": [
        0.9999294877052307,
        0.9999932050704956,
        1.0
      ],
      "min": [
        -0.9999861121177673,
        -0.9999963641166687,
        -0.999989926815033
      ],
      "type": "VEC3"
    },
    {
      "bufferView": 1,
      "byteOffset": 3577176,
      "componentType": 5126,
      "count": 65532,
      "max": [
        0.9990459084510803,
        0.9989615678787231
      ],
      "min": [
        0.001045498764142394,
        0.04289400577545166
      ],
      "type": "VEC2"
    },
    {
      "bufferView": 0,
      "byteOffset": 9083664,
      "componentType": 5125,
      "count": 322353,
      "type": "SCALAR"
    },
    {
      "bufferView": 2,
      "byteOffset": 12304296,
      "componentType": 5126,
      "count": 65532,
      "max": [
        1.498867154121399,
        7.579690933227539,
        0.9545755982398987
      ],
      "min": [
        -3.3315858840942383,
        -1.6240431070327759,
        -4.274833679199219
      ],
      "type": "VEC3"
    },
    {
      "bufferView": 2,
      "byteOffset": 13090680,
      "componentType": 5126,
      "count": 65532,
      "max": [
        0.9999961853027344,
        0.9991950392723083,
        0.9999929666519165
      ],
      "min": [
        -0.9998784065246582,
        -0.9999946355819702,
        -0.9999973177909851
      ],
      "type": "VEC3"
    },
    {
      "bufferView": 1,
      "byteOffset": 4101432,
      "componentType": 5126,
      "count": 65532,
      "max": [
        0.9989578723907471,
        0.9989623427391052
      ],
      "min": [
        0.0010443569626659155,
        0.03437548875808716
      ],
      "type": "VEC2"
    },
    {
      "bufferView": 0,
      "byteOffset": 10373076,
      "componentType": 5125,
      "count": 301479,
      "type": "SCALAR"
    },
    {
      "bufferView": 2,
      "byteOffset": 13877064,
      "componentType": 5126,
      "count": 28055,
      "max": [
        0.2658501863479614,
        3.0022783279418945,
        0.046002261340618134
      ],
      "min": [
        -3.323514699935913,
        -0.2844372093677521,
        -4.255245685577393
      ],
      "type": "VEC3"
    },
    {
      "bufferView": 2,
      "byteOffset": 14213724,
      "componentType": 5126,
      "count": 28055,
      "max": [
        0.9999748468399048,
        0.9998881220817566,
        0.9995298981666565
      ],
      "min": [
        -0.9999977946281433,
        -0.9999957084655762,
        -0.9999692440032959
      ],
      "type": "VEC3"
    },
    {
      "bufferView": 1,
      "byteOffset": 4625688,
      "componentType": 5126,
      "count": 28055,
      "max": [
        0.998802125453949,
        0.9989595413208008
      ],
      "min": [
        0.0010432784911245108,
        0.055442631244659424
      ],
      "type": "VEC2"
    },
    {
      "bufferView": 0,
      "byteOffset": 11578992,
      "componentType": 5125,
      "count": 131403,
      "type": "SCALAR"
    }
  ],
  "asset": {
    "extras": {
      "author": "tdr125 (https://sketchfab.com/tdr125)",
      "license": "CC-BY-4.0 (http://creativecommons.org/licenses/by/4.0/)",
      "source": "https://sketchfab.com/3d-models/sophocles-49f2547319664c9b98c9b51ccb4347f4",
      "title": "Sophocles"
    },
    "generator": "Sketchfab-12.68.0",
    "version": "2.0"
  },
  "bufferViews": [
    {
      "buffer": 0,
      "byteLength": 12104604,
      "name": "floatBufferViews",
      "target": 34963
    },
    {
      "buffer": 0,
      "byteLength": 4850128,
      "byteOffset": 12104604,
      "byteStride": 8,
      "name": "floatBufferViews",
      "target": 34962
    },
    {
      "buffer": 0,
      "byteLength": 14550384,
      "byteOffset": 16954732,
      "byteStride": 12,
      "name": "floatBufferViews",
      "target": 34962
    }
  ],
  "buffers": [
    {
      "byteLength": 31505116,
      "uri": "scene.bin"
    }
  ],
  "images": [
    {
      "uri": "textures/Model_0_baseColor.jpeg"
    },
    {
      "uri": "textures/Model_1_baseColor.jpeg"
    },
    {
      "uri": "textures/Model_2_baseColor.jpeg"
    },
    {
      "uri": "textures/Model_3_baseColor.jpeg"
    }
  ],
  "materials": [
    {
      "doubleSided": true,
      "name": "Model_0",
      "pbrMetallicRoughness": {
        "baseColorTexture": {
          "index": 0
        },
        "metallicFactor": 0.0
      }
    },
    {
      "doubleSided": true,
      "name": "Model_1",
      "pbrMetallicRoughness": {
        "baseColorTexture": {
          "index": 1
        },
        "metallicFactor": 0.0
      }
    },
    {
      "doubleSided": true,
      "name": "Model_2",
      "pbrMetallicRoughness": {
        "baseColorTexture": {
          "index": 2
        },
        "metallicFactor": 0.0
      }
    },
    {
      "doubleSided": true,
      "name": "Model_3",
      "pbrMetallicRoughness": {
        "baseColorTexture": {
          "index": 3
        },
        "metallicFactor": 0.0
      }
    }
  ],
  "meshes": [
    {
      "name": "Object_0",
      "primitives": [
        {
          "attributes": {
            "NORMAL": 1,
            "POSITION": 0,
            "TEXCOORD_0": 2
          },
          "indices": 3,
          "material": 0,
          "mode": 4
        }
      ]
    },
    {
      "name": "Object_1",
      "primitives": [
        {
          "attributes": {
            "NORMAL": 5,
            "POSITION": 4,
            "TEXCOORD_0": 6
          },
          "indices": 7,
          "material": 0,
          "mode": 4
        }
      ]
    },
    {
      "name": "Object_2",
      "primitives": [
        {
          "attributes": {
            "NORMAL": 9,
            "POSITION": 8,
            "TEXCOORD_0": 10
          },
          "indices": 11,
          "material": 0,
          "mode": 4
        }
      ]
    },
    {
      "name": "Object_3",
      "primitives": [
        {
          "attributes": {
            "NORMAL": 13,
            "POSITION": 12,
            "TEXCOORD_0": 14
          },
          "indices": 15,
          "material": 1,
          "mode": 4
        }
      ]
    },
    {
      "name": "Object_4",
      "primitives": [
        {
          "attributes": {
            "NORMAL": 17,
            "POSITION": 16,
            "TEXCOORD_0": 18
          },
          "indices": 19,
          "material": 1,
          "mode": 4
        }
      ]
    },
    {
      "name": "Object_5",
      "primitives": [
        {
          "attributes": {
            "NORMAL": 21,
            "POSITION": 20,
            "TEXCOORD_0": 22
          },
          "indices": 23,
          "material": 1,
          "mode": 4
        }
      ]
    },
    {
      "name": "Object_6",
      "primitives": [
        {
          "attributes": {
            "NORMAL": 25,
            "POSITION": 24,
            "TEXCOORD_0": 26
          },
          "indices": 27,
          "material": 2,
          "mode": 4
        }
      ]
    },
    {
      "name": "Object_7",
      "primitives": [
        {
          "attributes": {
            "NORMAL": 29,
            "POSITION": 28,
            "TEXCOORD_0": 30
          },
          "indices": 31,
          "material": 2,
          "mode": 4
        }
      ]
    },
    {
      "name": "Object_8",
      "primitives": [
        {
          "attributes": {
            "NORMAL": 33,
            "POSITION": 32,
            "TEXCOORD_0": 34
          },
          "indices": 35,
          "material": 3,
          "mode": 4
        }
      ]
    },
    {
      "name": "Object_9",
      "primitives": [
        {
          "attributes": {
            "NORMAL": 37,
            "POSITION": 36,
            "TEXCOORD_0": 38
          },
          "indices": 39,
          "material": 3,
          "mode": 4
        }
      ]
    },
    {
      "name": "Object_10",
      "primitives": [
        {
          "attributes": {
            "NORMAL": 41,
            "POSITION": 40,
            "TEXCOORD_0": 42
          },
          "indices": 43,
          "material": 3,
          "mode": 4
        }
      ]
    }
  ],
  "nodes": [
    {
      "children": [
        1
      ],
      "matrix": [
        1.0,
        0.0,
        0.0,
        0.0,
        0.0,
        2.220446049250313e-16,
        -1.0,
        0.0,
        0.0,
        1.0,
        2.220446049250313e-16,
        0.0,
        0.0,
        0.0,
        0.0,
        1.0
      ],
      "name": "Sketchfab_model"
    },
    {
      "children": [
        2,
        3,
        4,
        5,
        6,
        7,
        8,
        9,
        10,
        11,
        12
      ],
      "name": "Model.obj.cleaner.materialmerger.gles"
    },
    {
      "mesh": 0,
      "name": "Object_2"
    },
    {
      "mesh": 1,
      "name": "Object_3"
    },
    {
      "mesh": 2,
      "name": "Object_4"
    },
    {
      "mesh": 3,
      "name": "Object_5"
    },
    {
      "mesh": 4,
      "name": "Object_6"
    },
    {
      "mesh": 5,
      "name": "Object_7"
    },
    {
      "mesh": 6,
      "name": "Object_8"
    },
    {
      "mesh": 7,
      "name": "Object_9"
    },
    {
      "mesh": 8,
      "name": "Object_10"
    },
    {
      "mesh": 9,
      "name": "Object_11"
    },
    {
      "mesh": 10,
      "name": "Object_12"
    }
  ],
  "samplers": [
    {
      "magFilter": 9729,
      "minFilter": 9987,
      "wrapS": 10497,
      "wrapT": 10497
    }
  ],
  "scene": 0,
  "scenes": [
    {
      "name": "Sketchfab_Scene",
      "nodes": [
        0
      ]
    }
  ],
  "textures": [
    {
      "sampler": 0,
      "source": 0
    },
    {
      "sampler": 0,
      "source": 1
    },
    {
      "sampler": 0,
      "source": 2
    },
    {
      "sampler": 0,
      "source": 3
    }
  ]
}
