{
  "accessors": [
    {
      "bufferView": 2,
      "componentType": 5126,
      "count": 65532,
      "max": [
        1.4745656251907349,
        -1.8086292743682861,
        0.2634750306606293
      ],
      "min": [
        0.5045290589332581,
        -3.1454355716705322,
        -1.5663387775421143
      ],
      "type": "VEC3"
    },
    {
      "bufferView": 2,
      "byteOffset": 786384,
      "componentType": 5126,
      "count": 65532,
      "max": [
        0.9999603033065796,
        0.9999814629554749,
        0.9997848272323608
      ],
      "min": [
        -0.99994957447052,
        -0.9999948143959045,
        -0.9991627335548401
      ],
      "type": "VEC3"
    },
    {
      "bufferView": 1,
      "componentType": 5126,
      "count": 65532,
      "max": [
        0.9997004270553589,
        0.9968260526657104
      ],
      "min": [
        0.000244140625,
        0.00032814277801662683
      ],
      "type": "VEC2"
    },
    {
      "bufferView": 1,
      "byteOffset": 524256,
      "componentType": 5126,
      "count": 65532,
      "max": [
        0.9997004270553589,
        0.9968260526657104
      ],
      "min": [
        0.000244140625,
        0.00032814277801662683
      ],
      "type": "VEC2"
    },
    {
      "bufferView": 0,
      "componentType": 5125,
      "count": 300621,
      "type": "SCALAR"
    },
    {
      "bufferView": 2,
      "byteOffset": 1572768,
      "componentType": 5126,
      "count": 65532,
      "max": [
        1.111716866493225,
        -1.9342697858810425,
        0.5666432976722717
      ],
      "min": [
        0.33873164653778076,
        -2.9571621417999268,
        -1.0147552490234375
      ],
      "type": "VEC3"
    },
    {
      "bufferView": 2,
      "byteOffset": 2359152,
      "componentType": 5126,
      "count": 65532,
      "max": [
        0.9999714493751526,
        0.9999997019767761,
        0.9999141097068787
      ],
      "min": [
        -0.9999964237213135,
        -0.999957799911499,
        -0.9998581409454346
      ],
      "type": "VEC3"
    },
    {
      "bufferView": 1,
      "byteOffset": 1048512,
      "componentType": 5126,
      "count": 65532,
      "max": [
        0.99971604347229,
        0.9821776151657104
      ],
      "min": [
        0.000244140625,
        0.00024731887970119715
      ],
      "type": "VEC2"
    },
    {
      "bufferView": 1,
      "byteOffset": 1572768,
      "componentType": 5126,
      "count": 65532,
      "max": [
        0.99971604347229,
        0.9821776151657104
      ],
      "min": [
        0.000244140625,
        0.00024731887970119715
      ],
      "type": "VEC2"
    },
    {
      "bufferView": 0,
      "byteOffset": 1202484,
      "componentType": 5125,
      "count": 269568,
      "type": "SCALAR"
    },
    {
      "bufferView": 2,
      "byteOffset": 3145536,
      "componentType": 5126,
      "count": 65532,
      "max": [
        1.263175368309021,
        -2.2960288524627686,
        0.6011260747909546
      ],
      "min": [
        0.396287202835083,
        -3.141303062438965,
        -0.8142357468605042
      ],
      "type": "VEC3"
    },
    {
      "bufferView": 2,
      "byteOffset": 3931920,
      "componentType": 5126,
      "count": 65532,
      "max": [
        0.9999645352363586,
        0.9997397661209106,
        0.9998924136161804
      ],
      "min": [
        -0.9999982118606567,
        -0.9999973177909851,
        -0.9999446272850037
      ],
      "type": "VEC3"
    },
    {
      "bufferView": 1,
      "byteOffset": 2097024,
      "componentType": 5126,
      "count": 65532,
      "max": [
        0.9997523427009583,
        0.9909666776657104
      ],
      "min": [
        0.000244140625,
        0.00026585592422634363
      ],
      "type": "VEC2"
    },
    {
      "bufferView": 1,
      "byteOffset": 2621280,
      "componentType": 5126,
      "count": 65532,
      "max": [
        0.9997523427009583,
        0.9909666776657104
      ],
      "min": [
        0.000244140625,
        0.00026585592422634363
      ],
      "type": "VEC2"
    },
    {
      "bufferView": 0,
      "byteOffset": 2280756,
      "componentType": 5125,
      "count": 261801,
      "type": "SCALAR"
    },
    {
      "bufferView": 2,
      "byteOffset": 4718304,
      "componentType": 5126,
      "count": 65532,
      "max": [
        1.7092317342758179,
        -1.8723242282867432,
        0.9591856598854065
      ],
      "min": [
        0.3486593961715698,
        -3.1624457836151123,
        -1.578324317932129
      ],
      "type": "VEC3"
    },
    {
      "bufferView": 2,
      "byteOffset": 5504688,
      "componentType": 5126,
      "count": 65532,
      "max": [
        0.9999404549598694,
        0.9999691247940063,
        0.9997764825820923
      ],
      "min": [
        -0.9999731183052063,
        -0.9999973177909851,
        -0.9999961853027344
      ],
      "type": "VEC3"
    },
    {
      "bufferView": 1,
      "byteOffset": 3145536,
      "componentType": 5126,
      "count": 65532,
      "max": [
        0.9996759295463562,
        0.9909666776657104
      ],
      "min": [
        0.000244140625,
        0.0002463652053847909
      ],
      "type": "VEC2"
    },
    {
      "bufferView": 1,
      "byteOffset": 3669792,
      "componentType": 5126,
      "count": 65532,
      "max": [
        0.9996759295463562,
        0.9909666776657104
      ],
      "min": [
        0.000244140625,
        0.0002463652053847909
      ],
      "type": "VEC2"
    },
    {
      "bufferView": 0,
      "byteOffset": 3327960,
      "componentType": 5125,
      "count": 287895,
      "type": "SCALAR"
    },
    {
      "bufferView": 2,
      "byteOffset": 6291072,
      "componentType": 5126,
      "count": 65532,
      "max": [
        1.7096993923187256,
        -2.070204019546509,
        0.9598453640937805
      ],
      "min": [
        0.2839598059654236,
        -3.4523141384124756,
        0.3959762752056122
      ],
      "type": "VEC3"
    },
    {
      "bufferView": 2,
      "byteOffset": 7077456,
      "componentType": 5126,
      "count": 65532,
      "max": [
        0.9999951124191284,
        0.9999908804893494,
        0.9999997019767761
      ],
      "min": [
        -0.9999880790710449,
        -0.9999647736549377,
        -0.9999988675117493
      ],
      "type": "VEC3"
    },
    {
      "bufferView": 1,
      "byteOffset": 4194048,
      "componentType": 5126,
      "count": 65532,
      "max": [
        0.9997513294219971,
        0.9851073026657104
      ],
      "min": [
        0.000244140625,
        0.00024654401931911707
      ],
      "type": "VEC2"
    },
    {
      "bufferView": 1,
      "byteOffset": 4718304,
      "componentType": 5126,
      "count": 65532,
      "max": [
        0.9997513294219971,
        0.9851073026657104
      ],
      "min": [
        0.000244140625,
        0.00024654401931911707
      ],
      "type": "VEC2"
    },
    {
      "bufferView": 0,
      "byteOffset": 4479540,
      "componentType": 5125,
      "count": 278631,
      "type": "SCALAR"
    },
    {
      "bufferView": 2,
      "byteOffset": 7863840,
      "componentType": 5126,
      "count": 65532,
      "max": [
        1.2621121406555176,
        -1.886262059211731,
        0.9645809531211853
      ],
      "min": [
        0.13315004110336304,
        -3.458911418914795,
        0.31483519077301025
      ],
      "type": "VEC3"
    },
    {
      "bufferView": 2,
      "byteOffset": 8650224,
      "componentType": 5126,
      "count": 65532,
      "max": [
        0.9999960064888,
        0.9999998807907104,
        0.9999972581863403
      ],
      "min": [
        -0.9999024271965027,
        -0.9999945759773254,
        -0.9999985098838806
      ],
      "type": "VEC3"
    },
    {
      "bufferView": 1,
      "byteOffset": 5242560,
      "componentType": 5126,
      "count": 65532,
      "max": [
        0.9997535347938538,
        0.9909666776657104
      ],
      "min": [
        0.000244140625,
        0.00024863018188625574
      ],
      "type": "VEC2"
    },
    {
      "bufferView": 1,
      "byteOffset": 5766816,
      "componentType": 5126,
      "count": 65532,
      "max": [
        0.9997535347938538,
        0.9909666776657104
      ],
      "min": [
        0.000244140625,
        0.00024863018188625574
      ],
      "type": "VEC2"
    },
    {
      "bufferView": 0,
      "byteOffset": 5594064,
      "componentType": 5125,
      "count": 261651,
      "type": "SCALAR"
    },
    {
      "bufferView": 2,
      "byteOffset": 9436608,
      "componentType": 5126,
      "count": 65534,
      "max": [
        1.2631959915161133,
        -1.907578706741333,
        0.9628961682319641
      ],
      "min": [
        0.141862690448761,
        -2.8276870250701904,
        -1.5296039581298828
      ],
      "type": "VEC3"
    },
    {
      "bufferView": 2,
      "byteOffset": 10223016,
      "componentType": 5126,
      "count": 65534,
      "max": [
        0.9999904036521912,
        0.9999211430549622,
        0.9998821020126343
      ],
      "min": [
        -0.9999659061431885,
        -0.9999963641166687,
        -0.9999961853027344
      ],
      "type": "VEC3"
    },
    {
      "bufferView": 1,
      "byteOffset": 6291072,
      "componentType": 5126,
      "count": 65534,
      "max": [
        0.9997180104255676,
        0.9968260526657104
      ],
      "min": [
        0.000244140625,
        0.0002654982963576913
      ],
      "type": "VEC2"
    },
    {
      "bufferView": 1,
      "byteOffset": 6815344,
      "componentType": 5126,
      "count": 65534,
      "max": [
        0.9997180104255676,
        0.9968260526657104
      ],
      "min": [
        0.000244140625,
        0.0002654982963576913
      ],
      "type": "VEC2"
    },
    {
      "bufferView": 0,
      "byteOffset": 6640668,
      "componentType": 5125,
      "count": 275109,
      "type": "SCALAR"
    },
    {
      "bufferView": 2,
      "byteOffset": 11009424,
      "componentType": 5126,
      "count": 65532,
      "max": [
        1.2627882957458496,
        -1.9240312576293945,
        0.4131350815296173
      ],
      "min": [
        0.6879645586013794,
        -2.8298845291137695,
        -0.7917883396148682
      ],
      "type": "VEC3"
    },
    {
      "bufferView": 2,
      "byteOffset": 11795808,
      "componentType": 5126,
      "count": 65532,
      "max": [
        0.9999904036521912,
        0.9999946355819702,
        0.9994315505027771
      ],
      "min": [
        -0.9999699592590332,
        -0.9999562501907349,
        -0.9994732737541199
      ],
      "type": "VEC3"
    },
    {
      "bufferView": 1,
      "byteOffset": 7339616,
      "componentType": 5126,
      "count": 65532,
      "max": [
        0.9996445178985596,
        0.9936067461967468
      ],
      "min": [
        0.000244140625,
        0.00024421943817287683
      ],
      "type": "VEC2"
    },
    {
      "bufferView": 1,
      "byteOffset": 7863872,
      "componentType": 5126,
      "count": 65532,
      "max": [
        0.9996445178985596,
        0.9936067461967468
      ],
      "min": [
        0.000244140625,
        0.00024421943817287683
      ],
      "type": "VEC2"
    },
    {
      "bufferView": 0,
      "byteOffset": 7741104,
      "componentType": 5125,
      "count": 250392,
      "type": "SCALAR"
    },
    {
      "bufferView": 2,
      "byteOffset": 12582192,
      "componentType": 5126,
      "count": 65532,
      "max": [
        1.2627261877059937,
        -1.9212062358856201,
        0.425764799118042
      ],
      "min": [
        0.6906173229217529,
        -2.8309402465820313,
        -0.9835900068283081
      ],
      "type": "VEC3"
    },
    {
      "bufferView": 2,
      "byteOffset": 13368576,
      "componentType": 5126,
      "count": 65532,
      "max": [
        0.9999975562095642,
        0.9999747276306152,
        0.9998866319656372
      ],
      "min": [
        -0.9999986886978149,
        -0.9999831318855286,
        -0.9980244040489197
      ],
      "type": "VEC3"
    },
    {
      "bufferView": 1,
      "byteOffset": 8388128,
      "componentType": 5126,
      "count": 65532,
      "max": [
        0.999745786190033,
        0.9978026151657104
      ],
      "min": [
        0.000244140625,
        0.0002494050422683358
      ],
      "type": "VEC2"
    },
    {
      "bufferView": 1,
      "byteOffset": 8912384,
      "componentType": 5126,
      "count": 65532,
      "max": [
        0.999745786190033,
        0.9978026151657104
      ],
      "min": [
        0.000244140625,
        0.0002494050422683358
      ],
      "type": "VEC2"
    },
    {
      "bufferView": 0,
      "byteOffset": 8742672,
      "componentType": 5125,
      "count": 271944,
      "type": "SCALAR"
    },
    {
      "bufferView": 2,
      "byteOffset": 14154960,
      "componentType": 5126,
      "count": 65532,
      "max": [
        1.2374926805496216,
        -1.8987643718719482,
        0.41798681020736694
      ],
      "min": [
        0.47076576948165894,
        -2.8299732208251953,
        -1.5312495231628418
      ],
      "type": "VEC3"
    },
    {
      "bufferView": 2,
      "byteOffset": 14941344,
      "componentType": 5126,
      "count": 65532,
      "max": [
        0.9999975562095642,
        0.9999373555183411,
        0.9999849200248718
      ],
      "min": [
        -0.9999855160713196,
        -0.9999963641166687,
        -0.9996472597122192
      ],
      "type": "VEC3"
    },
    {
      "bufferView": 1,
      "byteOffset": 9436640,
      "componentType": 5126,
      "count": 65532,
      "max": [
        0.999742329120636,
        0.9894028902053833
      ],
      "min": [
        0.000244140625,
        0.0002487493911758065
      ],
      "type": "VEC2"
    },
    {
      "bufferView": 1,
      "byteOffset": 9960896,
      "componentType": 5126,
      "count": 65532,
      "max": [
        0.999742329120636,
        0.9894028902053833
      ],
      "min": [
        0.000244140625,
        0.0002487493911758065
      ],
      "type": "VEC2"
    },
    {
      "bufferView": 0,
      "byteOffset": 9830448,
      "componentType": 5125,
      "count": 247872,
      "type": "SCALAR"
    },
    {
      "bufferView": 2,
      "byteOffset": 15727728,
      "componentType": 5126,
      "count": 65532,
      "max": [
        1.2573624849319458,
        -1.9009349346160889,
        0.9628961682319641
      ],
      "min": [
        0.13315004110336304,
        -2.7643957138061523,
        -1.3653969764709473
      ],
      "type": "VEC3"
    },
    {
      "bufferView": 2,
      "byteOffset": 16514112,
      "componentType": 5126,
      "count": 65532,
      "max": [
        0.9997794032096863,
        0.9999814629554749,
        0.9999455809593201
      ],
      "min": [
        -0.9999880790710449,
        -0.9999585151672363,
        -0.9999942779541016
      ],
      "type": "VEC3"
    },
    {
      "bufferView": 1,
      "byteOffset": 10485152,
      "componentType": 5126,
      "count": 65532,
      "max": [
        0.9997309446334839,
        0.9880369901657104
      ],
      "min": [
        0.000244140625,
        0.00024743808899074793
      ],
      "type": "VEC2"
    },
    {
      "bufferView": 1,
      "byteOffset": 11009408,
      "componentType": 5126,
      "count": 65532,
      "max": [
        0.9997309446334839,
        0.9880369901657104
      ],
      "min": [
        0.000244140625,
        0.00024743808899074793
      ],
      "type": "VEC2"
    },
    {
      "bufferView": 0,
      "byteOffset": 10821936,
      "componentType": 5125,
      "count": 232740,
      "type": "SCALAR"
    },
    {
      "bufferView": 2,
      "byteOffset": 17300496,
      "componentType": 5126,
      "count": 19283,
      "max": [
        1.2589473724365234,
        -2.1788434982299805,
        0.959659993648529
      ],
      "min": [
        0.2325415015220642,
        -2.7433512210845947,
        0.4036434292793274
      ],
      "type": "VEC3"
    },
    {
      "bufferView": 2,
      "byteOffset": 17531892,
      "componentType": 5126,
      "count": 19283,
      "max": [
        0.9999405145645142,
        0.9999735355377197,
        0.9999997019767761
      ],
      "min": [
        -0.9999871850013733,
        -0.9986523389816284,
        -0.9999967813491821
      ],
      "type": "VEC3"
    },
    {
      "bufferView": 1,
      "byteOffset": 11533664,
      "componentType": 5126,
      "count": 19283,
      "max": [
        0.9996889233589172,
        0.9768754839897156
      ],
      "min": [
        0.000244140625,
        0.00025935901794582605
      ],
      "type": "VEC2"
    },
    {
      "bufferView": 1,
      "byteOffset": 11687928,
      "componentType": 5126,
      "count": 19283,
      "max": [
        0.9996889233589172,
        0.9768754839897156
      ],
      "min": [
        0.000244140625,
        0.00025935901794582605
      ],
      "type": "VEC2"
    },
    {
      "bufferView": 0,
      "byteOffset": 11752896,
      "componentType": 5125,
      "count": 61566,
      "type": "SCALAR"
    }
  ],
  "asset": {
    "extras": {
      "author": "FinDeering (https://sketchfab.com/FinDeering)",
      "license": "CC-BY-4.0 (http://creativecommons.org/licenses/by/4.0/)",
      "source": "https://sketchfab.com/3d-models/nike-of-paionios-c659766bebb64b9ab4ea55e811ecabca",
      "title": "Nike of Paionios"
    },
    "generator": "Sketchfab-14.64.0",
    "version": "2.0"
  },
  "bufferViews": [
    {
      "buffer": 0,
      "byteLength": 11999160,
      "name": "floatBufferViews",
      "target": 34963
    },
    {
      "buffer": 0,
      "byteLength": 11842192,
      "byteOffset": 11999160,
      "byteStride": 8,
      "name": "floatBufferViews",
      "target": 34962
    },
    {
      "buffer": 0,
      "byteLength": 17763288,
      "byteOffset": 23841352,
      "byteStride": 12,
      "name": "floatBufferViews",
      "target": 34962
    }
  ],
  "buffers": [
    {
      "byteLength": 41604640,
      "uri": "scene.bin"
    }
  ],
  "extensionsUsed": [
    "KHR_materials_unlit"
  ],
  "images": [
    {
      "uri": "textures/tex_u1_v1_baseColor.jpeg"
    }
  ],
  "materials": [
    {
      "doubleSided": true,
      "extensions": {
        "KHR_materials_unlit": {}
      },
      "name": "tex_u1_v1",
      "pbrMetallicRoughness": {
        "baseColorTexture": {
          "index": 0
        },
        "metallicFactor": 0.0
      }
    }
  ],
  "meshes": [
    {
      "name": "model_tex_u1_v1_0",
      "primitives": [
        {
          "attributes": {
            "NORMAL": 1,
            "POSITION": 0,
            "TEXCOORD_0": 2,
            "TEXCOORD_1": 3
          },
          "indices": 4,
          "material": 0,
          "mode": 4
        }
      ]
    },
    {
      "name": "model_tex_u1_v1_0",
      "primitives": [
        {
          "attributes": {
            "NORMAL": 6,
            "POSITION": 5,
            "TEXCOORD_0": 7,
            "TEXCOORD_1": 8
          },
          "indices": 9,
          "material": 0,
          "mode": 4
        }
      ]
    },
    {
      "name": "model_tex_u1_v1_0",
      "primitives": [
        {
          "attributes": {
            "NORMAL": 11,
            "POSITION": 10,
            "TEXCOORD_0": 12,
            "TEXCOORD_1": 13
          },
          "indices": 14,
          "material": 0,
          "mode": 4
        }
      ]
    },
    {
      "name": "model_tex_u1_v1_0",
      "primitives": [
        {
          "attributes": {
            "NORMAL": 16,
            "POSITION": 15,
            "TEXCOORD_0": 17,
            "TEXCOORD_1": 18
          },
          "indices": 19,
          "material": 0,
          "mode": 4
        }
      ]
    },
    {
      "name": "model_tex_u1_v1_0",
      "primitives": [
        {
          "attributes": {
            "NORMAL": 21,
            "POSITION": 20,
            "TEXCOORD_0": 22,
            "TEXCOORD_1": 23
          },
          "indices": 24,
          "material": 0,
          "mode": 4
        }
      ]
    },
    {
      "name": "model_tex_u1_v1_0",
      "primitives": [
        {
          "attributes": {
            "NORMAL": 26,
            "POSITION": 25,
            "TEXCOORD_0": 27,
            "TEXCOORD_1": 28
          },
          "indices": 29,
          "material": 0,
          "mode": 4
        }
      ]
    },
    {
      "name": "model_tex_u1_v1_0",
      "primitives": [
        {
          "attributes": {
            "NORMAL": 31,
            "POSITION": 30,
            "TEXCOORD_0": 32,
            "TEXCOORD_1": 33
          },
          "indices": 34,
          "material": 0,
          "mode": 4
        }
      ]
    },
    {
      "name": "model_tex_u1_v1_0",
      "primitives": [
        {
          "attributes": {
            "NORMAL": 36,
            "POSITION": 35,
            "TEXCOORD_0": 37,
            "TEXCOORD_1": 38
          },
          "indices": 39,
          "material": 0,
          "mode": 4
        }
      ]
    },
    {
      "name": "model_tex_u1_v1_0",
      "primitives": [
        {
          "attributes": {
            "NORMAL": 41,
            "POSITION": 40,
            "TEXCOORD_0": 42,
            "TEXCOORD_1": 43
          },
          "indices": 44,
          "material": 0,
          "mode": 4
        }
      ]
    },
    {
      "name": "model_tex_u1_v1_0",
      "primitives": [
        {
          "attributes": {
            "NORMAL": 46,
            "POSITION": 45,
            "TEXCOORD_0": 47,
            "TEXCOORD_1": 48
          },
          "indices": 49,
          "material": 0,
          "mode": 4
        }
      ]
    },
    {
      "name": "model_tex_u1_v1_0",
      "primitives": [
        {
          "attributes": {
            "NORMAL": 51,
            "POSITION": 50,
            "TEXCOORD_0": 52,
            "TEXCOORD_1": 53
          },
          "indices": 54,
          "material": 0,
          "mode": 4
        }
      ]
    },
    {
      "name": "model_tex_u1_v1_0",
      "primitives": [
        {
          "attributes": {
            "NORMAL": 56,
            "POSITION": 55,
            "TEXCOORD_0": 57,
            "TEXCOORD_1": 58
          },
          "indices": 59,
          "material": 0,
          "mode": 4
        }
      ]
    }
  ],
  "nodes": [
    {
      "children": [
        1
      ],
      "matrix": [
        1.0,
        0.0,
        0.0,
        0.0,
        0.0,
        2.220446049250313e-16,
        -1.0,
        0.0,
        0.0,
        1.0,
        2.220446049250313e-16,
        0.0,
        0.0,
        0.0,
        0.0,
        1.0
      ],
      "name": "Sketchfab_model"
    },
    {
      "children": [
        2
      ],
      "matrix": [
        1.0,
        0.0,
        0.0,
        0.0,
        0.0,
        -1.0,
        0.0,
        0.0,
        0.0,
        0.0,
        -1.0,
        0.0,
        0.0,
        0.0,
        0.0,
        1.0
      ],
      "name": "model.fbx"
    },
    {
      "children": [
        3
      ],
      "name": "RootNode"
    },
    {
      "children": [
        4,
        5,
        6,
        7,
        8,
        9,
        10,
        11,
        12,
        13,
        14,
        15
      ],
      "name": "model"
    },
    {
      "mesh": 0,
      "name": "model_tex_u1_v1_0"
    },
    {
      "mesh": 1,
      "name": "model_tex_u1_v1_0"
    },
    {
      "mesh": 2,
      "name": "model_tex_u1_v1_0"
    },
    {
      "mesh": 3,
      "name": "model_tex_u1_v1_0"
    },
    {
      "mesh": 4,
      "name": "model_tex_u1_v1_0"
    },
    {
      "mesh": 5,
      "name": "model_tex_u1_v1_0"
    },
    {
      "mesh": 6,
      "name": "model_tex_u1_v1_0"
    },
    {
      "mesh": 7,
      "name": "model_tex_u1_v1_0"
    },
    {
      "mesh": 8,
      "name": "model_tex_u1_v1_0"
    },
    {
      "mesh": 9,
      "name": "model_tex_u1_v1_0"
    },
    {
      "mesh": 10,
      "name": "model_tex_u1_v1_0"
    },
    {
      "mesh": 11,
      "name": "model_tex_u1_v1_0"
    }
  ],
  "samplers": [
    {
      "magFilter": 9729,
      "minFilter": 9987,
      "wrapS": 10497,
      "wrapT": 10497
    }
  ],
  "scene": 0,
  "scenes": [
    {
      "name": "Sketchfab_Scene",
      "nodes": [
        0
      ]
    }
  ],
  "textures": [
    {
      "sampler": 0,
      "source": 0
    }
  ]
}
