{
  "accessors": [
    {
      "bufferView": 2,
      "componentType": 5126,
      "count": 65532,
      "max": [
        5.085965156555176,
        20.640785217285156,
        -5.866083145141602
      ],
      "min": [
        -0.3128089904785156,
        14.610827445983887,
        -11.086896896362305
      ],
      "type": "VEC3"
    },
    {
      "bufferView": 2,
      "byteOffset": 786384,
      "componentType": 5126,
      "count": 65532,
      "max": [
        0.9999996423721313,
        0.9995647668838501,
        0.9999780058860779
      ],
      "min": [
        -0.9999879002571106,
        -0.9999788999557495,
        -0.9999974966049194
      ],
      "type": "VEC3"
    },
    {
      "bufferView": 1,
      "componentType": 5126,
      "count": 65532,
      "max": [
        0.9830229878425598,
        0.9746739864349365
      ],
      "min": [
        0.003573999973013997,
        0.017364999279379845
      ],
      "type": "VEC2"
    },
    {
      "bufferView": 0,
      "componentType": 5125,
      "count": 357108,
      "type": "SCALAR"
    },
    {
      "bufferView": 2,
      "byteOffset": 1572768,
      "componentType": 5126,
      "count": 65532,
      "max": [
        5.119571208953857,
        20.770639419555664,
        -3.354314088821411
      ],
      "min": [
        -1.981328010559082,
        14.600810050964355,
        -10.795612335205078
      ],
      "type": "VEC3"
    },
    {
      "bufferView": 2,
      "byteOffset": 2359152,
      "componentType": 5126,
      "count": 65532,
      "max": [
        0.9999985098838806,
        0.9900026321411133,
        0.9999937415122986
      ],
      "min": [
        -0.9999997615814209,
        -0.9999855160713196,
        -0.9999978542327881
      ],
      "type": "VEC3"
    },
    {
      "bufferView": 1,
      "byteOffset": 524256,
      "componentType": 5126,
      "count": 65532,
      "max": [
        0.991212010383606,
        0.9994369745254517
      ],
      "min": [
        0.0038769999518990517,
        0.00203399988822639
      ],
      "type": "VEC2"
    },
    {
      "bufferView": 0,
      "byteOffset": 1428432,
      "componentType": 5125,
      "count": 353112,
      "type": "SCALAR"
    },
    {
      "bufferView": 2,
      "byteOffset": 3145536,
      "componentType": 5126,
      "count": 65532,
      "max": [
        5.228341102600098,
        20.575658798217773,
        -0.9728900194168091
      ],
      "min": [
        -3.2816519737243652,
        14.510380744934082,
        -10.58016300201416
      ],
      "type": "VEC3"
    },
    {
      "bufferView": 2,
      "byteOffset": 3931920,
      "componentType": 5126,
      "count": 65532,
      "max": [
        0.9999926686286926,
        0.9997952580451965,
        0.9999962449073792
      ],
      "min": [
        -0.9999970197677612,
        -0.9999884963035583,
        -0.999997615814209
      ],
      "type": "VEC3"
    },
    {
      "bufferView": 1,
      "byteOffset": 1048512,
      "componentType": 5126,
      "count": 65532,
      "max": [
        0.9970409870147705,
        0.9983789920806885
      ],
      "min": [
        6.000000212225132e-06,
        0.001057000015862286
      ],
      "type": "VEC2"
    },
    {
      "bufferView": 0,
      "byteOffset": 2840880,
      "componentType": 5125,
      "count": 351867,
      "type": "SCALAR"
    },
    {
      "bufferView": 2,
      "byteOffset": 4718304,
      "componentType": 5126,
      "count": 65532,
      "max": [
        -0.759486973285675,
        20.770708084106445,
        -8.205073356628418
      ],
      "min": [
        -11.650283813476563,
        14.60010814666748,
        -10.652628898620605
      ],
      "type": "VEC3"
    },
    {
      "bufferView": 2,
      "byteOffset": 5504688,
      "componentType": 5126,
      "count": 65532,
      "max": [
        0.9999992251396179,
        0.9999961256980896,
        0.9999032616615295
      ],
      "min": [
        -0.9999595284461975,
        -0.9999832510948181,
        -0.9999996423721313
      ],
      "type": "VEC3"
    },
    {
      "bufferView": 1,
      "byteOffset": 1572768,
      "componentType": 5126,
      "count": 65532,
      "max": [
        0.9440760016441345,
        0.9963279962539673
      ],
      "min": [
        0.020865999162197113,
        0.0009369999752379954
      ],
      "type": "VEC2"
    },
    {
      "bufferView": 0,
      "byteOffset": 4248348,
      "componentType": 5125,
      "count": 356817,
      "type": "SCALAR"
    },
    {
      "bufferView": 2,
      "byteOffset": 6291072,
      "componentType": 5126,
      "count": 65532,
      "max": [
        -5.5521559715271,
        20.714542388916016,
        -7.927355766296387
      ],
      "min": [
        -16.161319732666016,
        14.592789649963379,
        -10.444170951843262
      ],
      "type": "VEC3"
    },
    {
      "bufferView": 2,
      "byteOffset": 7077456,
      "componentType": 5126,
      "count": 65532,
      "max": [
        0.9999954700469971,
        0.9999707341194153,
        0.999984860420227
      ],
      "min": [
        -0.9999985098838806,
        -0.9999160170555115,
        -0.9999980926513672
      ],
      "type": "VEC3"
    },
    {
      "bufferView": 1,
      "byteOffset": 2097024,
      "componentType": 5126,
      "count": 65532,
      "max": [
        0.9999819993972778,
        0.9879059791564941
      ],
      "min": [
        0.00992599967867136,
        0.0005869999877177179
      ],
      "type": "VEC2"
    },
    {
      "bufferView": 0,
      "byteOffset": 5675616,
      "componentType": 5125,
      "count": 355758,
      "type": "SCALAR"
    },
    {
      "bufferView": 2,
      "byteOffset": 7863840,
      "componentType": 5126,
      "count": 65532,
      "max": [
        5.219559192657471,
        20.77069664001465,
        4.440540790557861
      ],
      "min": [
        -15.971353530883789,
        14.268462181091309,
        -10.405790328979492
      ],
      "type": "VEC3"
    },
    {
      "bufferView": 2,
      "byteOffset": 8650224,
      "componentType": 5126,
      "count": 65532,
      "max": [
        0.9999973773956299,
        0.9998700022697449,
        0.9999850988388062
      ],
      "min": [
        -0.9999992251396179,
        -0.9999983310699463,
        -0.9999989867210388
      ],
      "type": "VEC3"
    },
    {
      "bufferView": 1,
      "byteOffset": 2621280,
      "componentType": 5126,
      "count": 65532,
      "max": [
        0.9900910258293152,
        0.9900320172309875
      ],
      "min": [
        0.004530999809503555,
        0.004985999781638384
      ],
      "type": "VEC2"
    },
    {
      "bufferView": 0,
      "byteOffset": 7098648,
      "componentType": 5125,
      "count": 354663,
      "type": "SCALAR"
    },
    {
      "bufferView": 2,
      "byteOffset": 9436608,
      "componentType": 5126,
      "count": 65532,
      "max": [
        5.421381950378418,
        20.572010040283203,
        9.328493118286133
      ],
      "min": [
        2.6431469917297363,
        14.331347465515137,
        -2.7229440212249756
      ],
      "type": "VEC3"
    },
    {
      "bufferView": 2,
      "byteOffset": 10222992,
      "componentType": 5126,
      "count": 65532,
      "max": [
        0.9999969005584717,
        0.9997952580451965,
        0.999997615814209
      ],
      "min": [
        -0.9998082518577576,
        -0.999995768070221,
        -0.9999983310699463
      ],
      "type": "VEC3"
    },
    {
      "bufferView": 1,
      "byteOffset": 3145536,
      "componentType": 5126,
      "count": 65532,
      "max": [
        0.9997779726982117,
        0.9995250105857849
      ],
      "min": [
        0.003155000042170286,
        2.8000000384054147e-05
      ],
      "type": "VEC2"
    },
    {
      "bufferView": 0,
      "byteOffset": 8517300,
      "componentType": 5125,
      "count": 349299,
      "type": "SCALAR"
    },
    {
      "bufferView": 2,
      "byteOffset": 11009376,
      "componentType": 5126,
      "count": 65532,
      "max": [
        5.4362077713012695,
        20.503257751464844,
        14.364188194274902
      ],
      "min": [
        3.149617910385132,
        14.17898178100586,
        3.2675509452819824
      ],
      "type": "VEC3"
    },
    {
      "bufferView": 2,
      "byteOffset": 11795760,
      "componentType": 5126,
      "count": 65532,
      "max": [
        0.999999463558197,
        0.9997873306274414,
        0.9999980926513672
      ],
      "min": [
        -0.9999997615814209,
        -0.9999727606773376,
        -0.9999884963035583
      ],
      "type": "VEC3"
    },
    {
      "bufferView": 1,
      "byteOffset": 3669792,
      "componentType": 5126,
      "count": 65532,
      "max": [
        0.9880160093307495,
        0.9558669924736023
      ],
      "min": [
        3.199999991920777e-05,
        0.03615599870681763
      ],
      "type": "VEC2"
    },
    {
      "bufferView": 0,
      "byteOffset": 9914496,
      "componentType": 5125,
      "count": 355659,
      "type": "SCALAR"
    },
    {
      "bufferView": 2,
      "byteOffset": 12582144,
      "componentType": 5126,
      "count": 65532,
      "max": [
        5.484776973724365,
        20.503257751464844,
        18.671005249023438
      ],
      "min": [
        -2.192157030105591,
        14.279911994934082,
        9.535589218139648
      ],
      "type": "VEC3"
    },
    {
      "bufferView": 2,
      "byteOffset": 13368528,
      "componentType": 5126,
      "count": 65532,
      "max": [
        0.9999961256980896,
        0.9995980262756348,
        0.9999997615814209
      ],
      "min": [
        -0.9999937415122986,
        -0.9999993443489075,
        -0.9999964833259583
      ],
      "type": "VEC3"
    },
    {
      "bufferView": 1,
      "byteOffset": 4194048,
      "componentType": 5126,
      "count": 65532,
      "max": [
        0.9933469891548157,
        0.99686199426651
      ],
      "min": [
        0.0,
        0.058051999658346176
      ],
      "type": "VEC2"
    },
    {
      "bufferView": 0,
      "byteOffset": 11337132,
      "componentType": 5125,
      "count": 353124,
      "type": "SCALAR"
    },
    {
      "bufferView": 2,
      "byteOffset": 14154912,
      "componentType": 5126,
      "count": 65532,
      "max": [
        5.386486053466797,
        20.4952335357666,
        18.55723762512207
      ],
      "min": [
        -2.7561099529266357,
        14.54814624786377,
        11.689455032348633
      ],
      "type": "VEC3"
    },
    {
      "bufferView": 2,
      "byteOffset": 14941296,
      "componentType": 5126,
      "count": 65532,
      "max": [
        0.9999979734420776,
        0.9886778593063354,
        0.9999993443489075
      ],
      "min": [
        -0.9999989867210388,
        -0.9999883770942688,
        -0.9999923706054688
      ],
      "type": "VEC3"
    },
    {
      "bufferView": 1,
      "byteOffset": 4718304,
      "componentType": 5126,
      "count": 65532,
      "max": [
        0.999921977519989,
        0.9992700219154358
      ],
      "min": [
        0.028768999502062798,
        0.03969600051641464
      ],
      "type": "VEC2"
    },
    {
      "bufferView": 0,
      "byteOffset": 12749628,
      "componentType": 5125,
      "count": 360942,
      "type": "SCALAR"
    },
    {
      "bufferView": 2,
      "byteOffset": 15727680,
      "componentType": 5126,
      "count": 65532,
      "max": [
        5.617203235626221,
        20.77069664001465,
        18.463848114013672
      ],
      "min": [
        -0.8940250277519226,
        14.618006706237793,
        -11.090617179870605
      ],
      "type": "VEC3"
    },
    {
      "bufferView": 2,
      "byteOffset": 16514064,
      "componentType": 5126,
      "count": 65532,
      "max": [
        0.9999998807907104,
        0.999913215637207,
        0.9999780058860779
      ],
      "min": [
        -0.999995768070221,
        -0.9999872446060181,
        -0.9999977350234985
      ],
      "type": "VEC3"
    },
    {
      "bufferView": 1,
      "byteOffset": 5242560,
      "componentType": 5126,
      "count": 65532,
      "max": [
        0.9979889988899231,
        0.9953939914703369
      ],
      "min": [
        0.0,
        0.0024870000779628754
      ],
      "type": "VEC2"
    },
    {
      "bufferView": 0,
      "byteOffset": 14193396,
      "componentType": 5125,
      "count": 292068,
      "type": "SCALAR"
    },
    {
      "bufferView": 2,
      "byteOffset": 17300448,
      "componentType": 5126,
      "count": 65532,
      "max": [
        5.300759792327881,
        20.77068519592285,
        5.49346923828125
      ],
      "min": [
        -5.058431148529053,
        14.526570320129395,
        -10.710679054260254
      ],
      "type": "VEC3"
    },
    {
      "bufferView": 2,
      "byteOffset": 18086832,
      "componentType": 5126,
      "count": 65532,
      "max": [
        0.9999887347221375,
        0.9999796152114868,
        0.9999924898147583
      ],
      "min": [
        -0.9999707341194153,
        -0.9999921321868896,
        -0.999997615814209
      ],
      "type": "VEC3"
    },
    {
      "bufferView": 1,
      "byteOffset": 5766816,
      "componentType": 5126,
      "count": 65532,
      "max": [
        0.9969059824943542,
        0.9994059801101685
      ],
      "min": [
        0.0,
        0.000990999978967011
      ],
      "type": "VEC2"
    },
    {
      "bufferView": 0,
      "byteOffset": 15361668,
      "componentType": 5125,
      "count": 298185,
      "type": "SCALAR"
    },
    {
      "bufferView": 2,
      "byteOffset": 18873216,
      "componentType": 5126,
      "count": 65533,
      "max": [
        5.676681995391846,
        20.503080368041992,
        18.519643783569336
      ],
      "min": [
        1.3800519704818726,
        14.238226890563965,
        3.370853900909424
      ],
      "type": "VEC3"
    },
    {
      "bufferView": 2,
      "byteOffset": 19659612,
      "componentType": 5126,
      "count": 65533,
      "max": [
        0.9999958872795105,
        0.9998311400413513,
        0.9999923706054688
      ],
      "min": [
        -0.9999992251396179,
        -0.9999727606773376,
        -0.9999872446060181
      ],
      "type": "VEC3"
    },
    {
      "bufferView": 1,
      "byteOffset": 6291072,
      "componentType": 5126,
      "count": 65533,
      "max": [
        0.9999060034751892,
        0.9994789958000183
      ],
      "min": [
        0.0,
        0.0007340000011026859
      ],
      "type": "VEC2"
    },
    {
      "bufferView": 0,
      "byteOffset": 16554408,
      "componentType": 5125,
      "count": 256980,
      "type": "SCALAR"
    },
    {
      "bufferView": 2,
      "byteOffset": 20446008,
      "componentType": 5126,
      "count": 65532,
      "max": [
        5.51046085357666,
        20.770662307739258,
        18.64486312866211
      ],
      "min": [
        -16.81009864807129,
        14.372055053710938,
        -9.550851821899414
      ],
      "type": "VEC3"
    },
    {
      "bufferView": 2,
      "byteOffset": 21232392,
      "componentType": 5126,
      "count": 65532,
      "max": [
        0.9999998807907104,
        0.999958336353302,
        0.9999962449073792
      ],
      "min": [
        -0.9999792575836182,
        -0.9999985694885254,
        -0.9999942183494568
      ],
      "type": "VEC3"
    },
    {
      "bufferView": 1,
      "byteOffset": 6815336,
      "componentType": 5126,
      "count": 65532,
      "max": [
        0.9999470114707947,
        0.999770998954773
      ],
      "min": [
        7.999999979801942e-06,
        0.0005799999926239252
      ],
      "type": "VEC2"
    },
    {
      "bufferView": 0,
      "byteOffset": 17582328,
      "componentType": 5125,
      "count": 277290,
      "type": "SCALAR"
    },
    {
      "bufferView": 2,
      "byteOffset": 22018776,
      "componentType": 5126,
      "count": 65378,
      "max": [
        -3.454287052154541,
        20.77069664001465,
        -7.803840160369873
      ],
      "min": [
        -17.271692276000977,
        14.598201751708984,
        -10.563851356506348
      ],
      "type": "VEC3"
    },
    {
      "bufferView": 2,
      "byteOffset": 22803312,
      "componentType": 5126,
      "count": 65378,
      "max": [
        1.0,
        0.9999813437461853,
        0.9997857809066772
      ],
      "min": [
        -0.9999992251396179,
        -0.9999683499336243,
        -0.9999984502792358
      ],
      "type": "VEC3"
    },
    {
      "bufferView": 1,
      "byteOffset": 7339592,
      "componentType": 5126,
      "count": 65378,
      "max": [
        0.9979079961776733,
        0.994422972202301
      ],
      "min": [
        0.0,
        0.0010580000234767795
      ],
      "type": "VEC2"
    },
    {
      "bufferView": 0,
      "byteOffset": 18691488,
      "componentType": 5125,
      "count": 277128,
      "type": "SCALAR"
    }
  ],
  "asset": {
    "extras": {
      "author": "Arqueomodel3D (https://sketchfab.com/juanbrualla)",
      "license": "CC-BY-4.0 (http://creativecommons.org/licenses/by/4.0/)",
      "source": "https://sketchfab.com/3d-models/athena-nike-temple-acropolis-museum-athens-0ac92308a31b46a59e4205dccb75078f",
      "title": "Athena Nike Temple -  Acropolis Museum | ATHENS"
    },
    "generator": "Sketchfab-15.37.0",
    "version": "2.0"
  },
  "bufferViews": [
    {
      "buffer": 0,
      "byteLength": 19800000,
      "name": "floatBufferViews",
      "target": 34963
    },
    {
      "buffer": 0,
      "byteLength": 7862616,
      "byteOffset": 19800000,
      "byteStride": 8,
      "name": "floatBufferViews",
      "target": 34962
    },
    {
      "buffer": 0,
      "byteLength": 23587848,
      "byteOffset": 27662616,
      "byteStride": 12,
      "name": "floatBufferViews",
      "target": 34962
    }
  ],
  "buffers": [
    {
      "byteLength": 51250464,
      "uri": "scene.bin"
    }
  ],
  "extensionsUsed": [
    "KHR_materials_specular"
  ],
  "images": [
    {
      "uri": "textures/COMPLETO.1001_baseColor.jpeg"
    }
  ],
  "materials": [
    {
      "doubleSided": true,
      "extensions": {
        "KHR_materials_specular": {
          "specularColorFactor": [
            1.0,
            1.0,
            1.0
          ],
          "specularFactor": 0.01610305958132045
        }
      },
      "name": "COMPLETO.1001",
      "pbrMetallicRoughness": {
        "baseColorTexture": {
          "index": 0
        },
        "metallicFactor": 0.0
      }
    }
  ],
  "meshes": [
    {
      "name": "Object_0",
      "primitives": [
        {
          "attributes": {
            "NORMAL": 1,
            "POSITION": 0,
            "TEXCOORD_0": 2
          },
          "indices": 3,
          "material": 0,
          "mode": 4
        }
      ]
    },
    {
      "name": "Object_1",
      "primitives": [
        {
          "attributes": {
            "NORMAL": 5,
            "POSITION": 4,
            "TEXCOORD_0": 6
          },
          "indices": 7,
          "material": 0,
          "mode": 4
        }
      ]
    },
    {
      "name": "Object_2",
      "primitives": [
        {
          "attributes": {
            "NORMAL": 9,
            "POSITION": 8,
            "TEXCOORD_0": 10
          },
          "indices": 11,
          "material": 0,
          "mode": 4
        }
      ]
    },
    {
      "name": "Object_3",
      "primitives": [
        {
          "attributes": {
            "NORMAL": 13,
            "POSITION": 12,
            "TEXCOORD_0": 14
          },
          "indices": 15,
          "material": 0,
          "mode": 4
        }
      ]
    },
    {
      "name": "Object_4",
      "primitives": [
        {
          "attributes": {
            "NORMAL": 17,
            "POSITION": 16,
            "TEXCOORD_0": 18
          },
          "indices": 19,
          "material": 0,
          "mode": 4
        }
      ]
    },
    {
      "name": "Object_5",
      "primitives": [
        {
          "attributes": {
            "NORMAL": 21,
            "POSITION": 20,
            "TEXCOORD_0": 22
          },
          "indices": 23,
          "material": 0,
          "mode": 4
        }
      ]
    },
    {
      "name": "Object_6",
      "primitives": [
        {
          "attributes": {
            "NORMAL": 25,
            "POSITION": 24,
            "TEXCOORD_0": 26
          },
          "indices": 27,
          "material": 0,
          "mode": 4
        }
      ]
    },
    {
      "name": "Object_7",
      "primitives": [
        {
          "attributes": {
            "NORMAL": 29,
            "POSITION": 28,
            "TEXCOORD_0": 30
          },
          "indices": 31,
          "material": 0,
          "mode": 4
        }
      ]
    },
    {
      "name": "Object_8",
      "primitives": [
        {
          "attributes": {
            "NORMAL": 33,
            "POSITION": 32,
            "TEXCOORD_0": 34
          },
          "indices": 35,
          "material": 0,
          "mode": 4
        }
      ]
    },
    {
      "name": "Object_9",
      "primitives": [
        {
          "attributes": {
            "NORMAL": 37,
            "POSITION": 36,
            "TEXCOORD_0": 38
          },
          "indices": 39,
          "material": 0,
          "mode": 4
        }
      ]
    },
    {
      "name": "Object_10",
      "primitives": [
        {
          "attributes": {
            "NORMAL": 41,
            "POSITION": 40,
            "TEXCOORD_0": 42
          },
          "indices": 43,
          "material": 0,
          "mode": 4
        }
      ]
    },
    {
      "name": "Object_11",
      "primitives": [
        {
          "attributes": {
            "NORMAL": 45,
            "POSITION": 44,
            "TEXCOORD_0": 46
          },
          "indices": 47,
          "material": 0,
          "mode": 4
        }
      ]
    },
    {
      "name": "Object_12",
      "primitives": [
        {
          "attributes": {
            "NORMAL": 49,
            "POSITION": 48,
            "TEXCOORD_0": 50
          },
          "indices": 51,
          "material": 0,
          "mode": 4
        }
      ]
    },
    {
      "name": "Object_13",
      "primitives": [
        {
          "attributes": {
            "NORMAL": 53,
            "POSITION": 52,
            "TEXCOORD_0": 54
          },
          "indices": 55,
          "material": 0,
          "mode": 4
        }
      ]
    },
    {
      "name": "Object_14",
      "primitives": [
        {
          "attributes": {
            "NORMAL": 57,
            "POSITION": 56,
            "TEXCOORD_0": 58
          },
          "indices": 59,
          "material": 0,
          "mode": 4
        }
      ]
    }
  ],
  "nodes": [
    {
      "children": [
        1
      ],
      "matrix": [
        0.024414049461483955,
        1.7273845514642684e-05,
        0.9997019171714783,
        0.0,
        -0.0007012633723206818,
        -0.9999997615814209,
        3.440477303207068e-05,
        0.0,
        0.9997016787528992,
        -0.0007018942851573175,
        -0.024414030835032463,
        0.0,
        0.0,
        0.0,
        0.0,
        1.0
      ],
      "name": "Sketchfab_model"
    },
    {
      "children": [
        2,
        3,
        4,
        5,
        6,
        7,
        8,
        9,
        10,
        11,
        12,
        13,
        14,
        15,
        16
      ],
      "name": "COMPLETO.obj.cleaner.materialmerger.gles"
    },
    {
      "mesh": 0,
      "name": "Object_2"
    },
    {
      "mesh": 1,
      "name": "Object_3"
    },
    {
      "mesh": 2,
      "name": "Object_4"
    },
    {
      "mesh": 3,
      "name": "Object_5"
    },
    {
      "mesh": 4,
      "name": "Object_6"
    },
    {
      "mesh": 5,
      "name": "Object_7"
    },
    {
      "mesh": 6,
      "name": "Object_8"
    },
    {
      "mesh": 7,
      "name": "Object_9"
    },
    {
      "mesh": 8,
      "name": "Object_10"
    },
    {
      "mesh": 9,
      "name": "Object_11"
    },
    {
      "mesh": 10,
      "name": "Object_12"
    },
    {
      "mesh": 11,
      "name": "Object_13"
    },
    {
      "mesh": 12,
      "name": "Object_14"
    },
    {
      "mesh": 13,
      "name": "Object_15"
    },
    {
      "mesh": 14,
      "name": "Object_16"
    }
  ],
  "samplers": [
    {
      "magFilter": 9729,
      "minFilter": 9987,
      "wrapS": 10497,
      "wrapT": 10497
    }
  ],
  "scene": 0,
  "scenes": [
    {
      "name": "Sketchfab_Scene",
      "nodes": [
        0
      ]
    }
  ],
  "textures": [
    {
      "sampler": 0,
      "source": 0
    }
  ]
}
